<?xml version="1.0" encoding="UTF-8" standalone="no"?>
<!-- Created with Inkscape (http://www.inkscape.org/) -->

<svg
   version="1.1"
   id="svg2"
   width="389.33334"
   height="253.33333"
   viewBox="0 0 389.33334 253.33333"
   xmlns="http://www.w3.org/2000/svg"
   xmlns:svg="http://www.w3.org/2000/svg">
  <defs
     id="defs6" />
  <g
     id="g8"
     transform="matrix(1.3333333,0,0,-1.3333333,0,253.33333)">
    <g
       id="g10"
       transform="scale(0.1)">
      <path
         d="m 208.125,492.816 h 281.25 v 281.25 h -281.25 z"
         style="fill:none;stroke:#000000;stroke-width:5.625;stroke-linecap:butt;stroke-linejoin:miter;stroke-miterlimit:10;stroke-dasharray:none;stroke-opacity:1"
         id="path12" />
      <path
         d="m 770.625,492.816 h 281.25 v 281.25 h -281.25 z"
         style="fill:none;stroke:#000000;stroke-width:5.625;stroke-linecap:butt;stroke-linejoin:miter;stroke-miterlimit:10;stroke-dasharray:none;stroke-opacity:1"
         id="path14" />
      <path
         d="m 489.375,627.816 h 236.25"
         style="fill:none;stroke:#000000;stroke-width:5.625;stroke-linecap:butt;stroke-linejoin:miter;stroke-miterlimit:1;stroke-dasharray:none;stroke-opacity:1"
         id="path16" />
      <path
         d="m 770.625,627.816 -45,-16.875 v 33.75"
         style="fill:#ffffff;fill-opacity:1;fill-rule:nonzero;stroke:none"
         id="path18" />
      <path
         d="m 770.625,627.816 -45,-16.875 v 33.75"
         style="fill:#000000;fill-opacity:1;fill-rule:nonzero;stroke:none"
         id="path20" />
      <path
         d="m 1051.88,633.441 h 236.25"
         style="fill:none;stroke:#000000;stroke-width:5.625;stroke-linecap:butt;stroke-linejoin:miter;stroke-miterlimit:1;stroke-dasharray:none;stroke-opacity:1"
         id="path22" />
      <path
         d="m 1333.13,633.441 -45,-16.875 v 33.75"
         style="fill:#ffffff;fill-opacity:1;fill-rule:nonzero;stroke:none"
         id="path24" />
      <path
         d="m 1333.13,633.441 -45,-16.875 v 33.75"
         style="fill:#000000;fill-opacity:1;fill-rule:nonzero;stroke:none"
         id="path26" />
      <path
         d="m 1333.13,487.191 h 281.25 v 281.25 h -281.25 z"
         style="fill:none;stroke:#000000;stroke-width:5.625;stroke-linecap:butt;stroke-linejoin:miter;stroke-miterlimit:10;stroke-dasharray:none;stroke-opacity:1"
         id="path28" />
      <path
         d="m 253.125,1269.07 h 281.25 v 281.25 h -281.25 z"
         style="fill:none;stroke:#000000;stroke-width:5.625;stroke-linecap:butt;stroke-linejoin:miter;stroke-miterlimit:10;stroke-dasharray:none;stroke-opacity:1"
         id="path30" />
      <path
         d="m 534.375,1409.69 h 236.25"
         style="fill:none;stroke:#000000;stroke-width:5.625;stroke-linecap:butt;stroke-linejoin:miter;stroke-miterlimit:1;stroke-dasharray:none;stroke-opacity:1"
         id="path32" />
      <path
         d="m 815.625,1409.69 -45,-16.87 v 33.75"
         style="fill:#ffffff;fill-opacity:1;fill-rule:nonzero;stroke:none"
         id="path34" />
      <path
         d="m 815.625,1409.69 -45,-16.87 v 33.75"
         style="fill:#000000;fill-opacity:1;fill-rule:nonzero;stroke:none"
         id="path36" />
      <path
         d="m 815.625,1269.07 h 281.25 v 281.25 h -281.25 z"
         style="fill:none;stroke:#000000;stroke-width:5.625;stroke-linecap:butt;stroke-linejoin:miter;stroke-miterlimit:10;stroke-dasharray:none;stroke-opacity:1"
         id="path38" />
      <path
         d="m 1096.88,1409.69 h 236.25"
         style="fill:none;stroke:#000000;stroke-width:5.625;stroke-linecap:butt;stroke-linejoin:miter;stroke-miterlimit:1;stroke-dasharray:none;stroke-opacity:1"
         id="path40" />
      <path
         d="m 1378.13,1409.69 -45,-16.87 v 33.75"
         style="fill:#ffffff;fill-opacity:1;fill-rule:nonzero;stroke:none"
         id="path42" />
      <path
         d="m 1378.13,1409.69 -45,-16.87 v 33.75"
         style="fill:#000000;fill-opacity:1;fill-rule:nonzero;stroke:none"
         id="path44" />
      <path
         d="m 1378.13,1269.07 h 281.25 v 281.25 h -281.25 z"
         style="fill:none;stroke:#000000;stroke-width:5.625;stroke-linecap:butt;stroke-linejoin:miter;stroke-miterlimit:10;stroke-dasharray:none;stroke-opacity:1"
         id="path46" />
      <path
         d="m 1659.38,1409.69 h 236.25"
         style="fill:none;stroke:#000000;stroke-width:5.625;stroke-linecap:butt;stroke-linejoin:miter;stroke-miterlimit:1;stroke-dasharray:none;stroke-opacity:1"
         id="path48" />
      <path
         d="m 1940.63,1409.69 -45,-16.87 v 33.75"
         style="fill:#ffffff;fill-opacity:1;fill-rule:nonzero;stroke:none"
         id="path50" />
      <path
         d="m 1940.63,1409.69 -45,-16.87 v 33.75"
         style="fill:#000000;fill-opacity:1;fill-rule:nonzero;stroke:none"
         id="path52" />
      <path
         d="m 320.625,1105.94 v 123.75"
         style="fill:none;stroke:#000000;stroke-width:5.625;stroke-linecap:butt;stroke-linejoin:miter;stroke-miterlimit:1;stroke-dasharray:none;stroke-opacity:1"
         id="path54" />
      <path
         d="m 320.625,1274.69 16.875,-45 h -33.75"
         style="fill:#ffffff;fill-opacity:1;fill-rule:nonzero;stroke:none"
         id="path56" />
      <path
         d="m 320.625,1274.69 16.875,-45 h -33.75"
         style="fill:#000000;fill-opacity:1;fill-rule:nonzero;stroke:none"
         id="path58" />
      <path
         d="m 1940.63,1269.07 h 281.25 v 281.25 h -281.25 z"
         style="fill:none;stroke:#000000;stroke-width:5.625;stroke-linecap:butt;stroke-linejoin:miter;stroke-miterlimit:10;stroke-dasharray:none;stroke-opacity:1"
         id="path60" />
      <path
         d="m 388.125,1550.32 v 33.75"
         style="fill:none;stroke:#000000;stroke-width:5.625;stroke-linecap:butt;stroke-linejoin:miter;stroke-miterlimit:1;stroke-dasharray:none;stroke-opacity:1"
         id="path62" />
      <path
         d="m 388.125,1629.07 16.875,-45 h -33.75"
         style="fill:#ffffff;fill-opacity:1;fill-rule:nonzero;stroke:none"
         id="path64" />
      <path
         d="m 388.125,1629.07 16.875,-45 h -33.75"
         style="fill:#000000;fill-opacity:1;fill-rule:nonzero;stroke:none"
         id="path66" />
      <g
         id="g68"
         transform="scale(10)">
        <text
           xml:space="preserve"
           transform="matrix(1,0,0,-1,33.75,181.469)"
           style="font-variant:normal;font-weight:normal;font-size:7.875px;font-family:Courier;-inkscape-font-specification:Courier;writing-mode:lr-tb;fill:#000000;fill-opacity:1;fill-rule:nonzero;stroke:none"
           id="text90"><tspan
             x="0 4.7249999 41.624966 46.349968 51.074966 55.799965 60.524967 65.249969 69.974968 102.93743 107.66243 112.38744 117.11243 121.83743"
             y="0"
             id="tspan70">uncaballonegro</tspan><tspan
             x="160.313 165.03799 169.763 174.48801 179.213"
             y="1.125"
             id="tspan72">&lt;eos&gt;</tspan><tspan
             x="-8.4370003 -3.7119999 1.013 5.7379999"
             y="119.813"
             id="tspan74">LSTM</tspan><tspan
             x="46.688 51.412998 56.138 60.862999"
             y="119.2505"
             id="tspan76">LSTM</tspan><tspan
             x="104.063 108.788 113.513 118.238"
             y="119.813"
             id="tspan78">LSTM</tspan><tspan
             x="-5.0619998 -0.33700001 4.388 9.1129999"
             y="41.6255"
             id="tspan80">LSTM</tspan><tspan
             x="52.8755 57.600498 62.3255 67.050499"
             y="42.7505"
             id="tspan82">LSTM</tspan><tspan
             x="109.1255 113.8505 118.5755 123.3005"
             y="42.188"
             id="tspan84">LSTM</tspan><tspan
             x="164.813 169.53799 174.263 178.98801"
             y="43.313"
             id="tspan86">LSTM</tspan><tspan
             x="-27 -22.275 -17.549999 -12.825 -8.1000004"
             y="73.125504"
             id="tspan88">&lt;eos&gt;</tspan></text>
      </g>
      <path
         d="M 371.25,965.316 H 540 v 168.75 H 371.25 Z"
         style="fill:none;stroke:#000000;stroke-width:5.625;stroke-linecap:butt;stroke-linejoin:miter;stroke-miterlimit:10;stroke-dasharray:none;stroke-opacity:1"
         id="path92" />
      <path
         d="m 950.625,959.691 h 168.75 v 168.75 h -168.75 z"
         style="fill:none;stroke:#000000;stroke-width:5.625;stroke-linecap:butt;stroke-linejoin:miter;stroke-miterlimit:10;stroke-dasharray:none;stroke-opacity:1"
         id="path94" />
      <path
         d="m 1524.38,959.691 h 168.75 v 168.75 h -168.75 z"
         style="fill:none;stroke:#000000;stroke-width:5.625;stroke-linecap:butt;stroke-linejoin:miter;stroke-miterlimit:10;stroke-dasharray:none;stroke-opacity:1"
         id="path96" />
      <path
         d="m 2064.38,954.066 h 168.75 v 168.75 h -168.75 z"
         style="fill:none;stroke:#000000;stroke-width:5.625;stroke-linecap:butt;stroke-linejoin:miter;stroke-miterlimit:10;stroke-dasharray:none;stroke-opacity:1"
         id="path98" />
      <path
         d="m 1614.38,633.441 h 168.75"
         style="fill:none;stroke:#000000;stroke-width:5.625;stroke-linecap:butt;stroke-linejoin:miter;stroke-miterlimit:1;stroke-dasharray:none;stroke-opacity:1"
         id="path100" />
      <path
         d="m 1828.13,633.441 -45,-16.875 v 33.75"
         style="fill:#ffffff;fill-opacity:1;fill-rule:nonzero;stroke:none"
         id="path102" />
      <path
         d="m 1828.13,633.441 -45,-16.875 v 33.75"
         style="fill:#000000;fill-opacity:1;fill-rule:nonzero;stroke:none"
         id="path104" />
      <path
         d="m 461.25,1134.07 v 90"
         style="fill:none;stroke:#000000;stroke-width:5.625;stroke-linecap:butt;stroke-linejoin:miter;stroke-miterlimit:1;stroke-dasharray:none;stroke-opacity:1"
         id="path106" />
      <path
         d="m 461.25,1269.07 16.875,-45 h -33.75"
         style="fill:#ffffff;fill-opacity:1;fill-rule:nonzero;stroke:none"
         id="path108" />
      <path
         d="m 461.25,1269.07 16.875,-45 h -33.75"
         style="fill:#000000;fill-opacity:1;fill-rule:nonzero;stroke:none"
         id="path110" />
      <g
         id="g112"
         transform="scale(10)">
        <text
           xml:space="preserve"
           transform="matrix(1,0,0,-1,41.5125,103.844)"
           style="font-variant:normal;font-weight:normal;font-size:6.75px;font-family:Courier;-inkscape-font-specification:Courier;writing-mode:lr-tb;fill:#000000;fill-opacity:1;fill-rule:nonzero;stroke:none"
           id="text122"><tspan
             x="0 4.0500002"
             y="0"
             id="tspan114">AM</tspan><tspan
             x="58.5 62.549999"
             y="1.125"
             id="tspan116">AM</tspan><tspan
             x="115.875 119.925"
             y="0.5625"
             id="tspan118">AM</tspan><tspan
             x="169.875 173.925"
             y="1.6875"
             id="tspan120">AM</tspan></text>
        <text
           xml:space="preserve"
           transform="matrix(1,0,0,-1,35.4375,3.719)"
           style="font-variant:normal;font-weight:normal;font-size:7.875px;font-family:Courier;-inkscape-font-specification:Courier;writing-mode:lr-tb;fill:#000000;fill-opacity:1;fill-rule:nonzero;stroke:none"
           id="text126"><tspan
             x="0 50.624989 55.349987 60.074989 64.799988 69.524986 101.24998 105.97498 110.69997 115.42498 120.14998"
             y="0"
             id="tspan124">ablackhorse</tspan></text>
      </g>
      <path
         d="m 129.375,149.691 h 506.25 v 56.25 h -506.25 z"
         style="fill:none;stroke:#000000;stroke-width:5.625;stroke-linecap:butt;stroke-linejoin:miter;stroke-miterlimit:10;stroke-dasharray:none;stroke-opacity:1"
         id="path128" />
      <path
         d="m 225,301.566 h 275.625 v 90 H 225 Z"
         style="fill:none;stroke:#000000;stroke-width:5.625;stroke-linecap:butt;stroke-linejoin:miter;stroke-miterlimit:10;stroke-dasharray:none;stroke-opacity:1"
         id="path130" />
      <path
         d="m 376.875,211.566 v 45"
         style="fill:none;stroke:#000000;stroke-width:5.625;stroke-linecap:butt;stroke-linejoin:miter;stroke-miterlimit:1;stroke-dasharray:none;stroke-opacity:1"
         id="path132" />
      <path
         d="m 376.875,301.566 16.875,-45 H 360"
         style="fill:#ffffff;fill-opacity:1;fill-rule:nonzero;stroke:none"
         id="path134" />
      <path
         d="m 376.875,301.566 16.875,-45 H 360"
         style="fill:#000000;fill-opacity:1;fill-rule:nonzero;stroke:none"
         id="path136" />
      <path
         d="m 691.875,149.691 h 506.25 v 56.25 h -506.25 z"
         style="fill:none;stroke:#000000;stroke-width:5.625;stroke-linecap:butt;stroke-linejoin:miter;stroke-miterlimit:10;stroke-dasharray:none;stroke-opacity:1"
         id="path138" />
      <path
         d="m 939.375,205.941 v 50.625"
         style="fill:none;stroke:#000000;stroke-width:5.625;stroke-linecap:butt;stroke-linejoin:miter;stroke-miterlimit:1;stroke-dasharray:none;stroke-opacity:1"
         id="path140" />
      <path
         d="m 939.375,301.566 16.875,-45 H 922.5"
         style="fill:#ffffff;fill-opacity:1;fill-rule:nonzero;stroke:none"
         id="path142" />
      <path
         d="m 939.375,301.566 16.875,-45 H 922.5"
         style="fill:#000000;fill-opacity:1;fill-rule:nonzero;stroke:none"
         id="path144" />
      <path
         d="m 1254.38,149.691 h 506.25 v 56.25 h -506.25 z"
         style="fill:none;stroke:#000000;stroke-width:5.625;stroke-linecap:butt;stroke-linejoin:miter;stroke-miterlimit:10;stroke-dasharray:none;stroke-opacity:1"
         id="path146" />
      <path
         d="m 1501.88,205.941 v 50.625"
         style="fill:none;stroke:#000000;stroke-width:5.625;stroke-linecap:butt;stroke-linejoin:miter;stroke-miterlimit:1;stroke-dasharray:none;stroke-opacity:1"
         id="path148" />
      <path
         d="m 1501.88,301.566 16.87,-45 H 1485"
         style="fill:#ffffff;fill-opacity:1;fill-rule:nonzero;stroke:none"
         id="path150" />
      <path
         d="m 1501.88,301.566 16.87,-45 H 1485"
         style="fill:#000000;fill-opacity:1;fill-rule:nonzero;stroke:none"
         id="path152" />
      <g
         id="g154"
         transform="scale(10)">
        <text
           xml:space="preserve"
           transform="matrix(1,0,0,-1,23.625,32.9691)"
           style="font-variant:normal;font-weight:normal;font-size:4.5px;font-family:Courier;-inkscape-font-specification:Courier;writing-mode:lr-tb;fill:#000000;fill-opacity:1;fill-rule:nonzero;stroke:none"
           id="text158"><tspan
             x="0 2.7 5.4000001 8.1000004 10.8 13.5 16.200001 18.9 21.6"
             y="0"
             id="tspan156">EMBEDDING</tspan></text>
      </g>
      <path
         d="m 360,397.191 v 50.625"
         style="fill:none;stroke:#000000;stroke-width:5.625;stroke-linecap:butt;stroke-linejoin:miter;stroke-miterlimit:1;stroke-dasharray:none;stroke-opacity:1"
         id="path160" />
      <path
         d="m 360,492.816 16.875,-45 h -33.75"
         style="fill:#ffffff;fill-opacity:1;fill-rule:nonzero;stroke:none"
         id="path162" />
      <path
         d="m 360,492.816 16.875,-45 h -33.75"
         style="fill:#000000;fill-opacity:1;fill-rule:nonzero;stroke:none"
         id="path164" />
      <path
         d="m 928.125,397.191 v 56.25"
         style="fill:none;stroke:#000000;stroke-width:5.625;stroke-linecap:butt;stroke-linejoin:miter;stroke-miterlimit:1;stroke-dasharray:none;stroke-opacity:1"
         id="path166" />
      <path
         d="m 928.125,498.441 16.875,-45 h -33.75"
         style="fill:#ffffff;fill-opacity:1;fill-rule:nonzero;stroke:none"
         id="path168" />
      <path
         d="m 928.125,498.441 16.875,-45 h -33.75"
         style="fill:#000000;fill-opacity:1;fill-rule:nonzero;stroke:none"
         id="path170" />
      <path
         d="m 1490.63,397.191 v 50.625"
         style="fill:none;stroke:#000000;stroke-width:5.625;stroke-linecap:butt;stroke-linejoin:miter;stroke-miterlimit:1;stroke-dasharray:none;stroke-opacity:1"
         id="path172" />
      <path
         d="m 1490.63,492.816 16.87,-45 h -33.75"
         style="fill:#ffffff;fill-opacity:1;fill-rule:nonzero;stroke:none"
         id="path174" />
      <path
         d="m 1490.63,492.816 16.87,-45 h -33.75"
         style="fill:#000000;fill-opacity:1;fill-rule:nonzero;stroke:none"
         id="path176" />
      <path
         d="m 798.75,307.191 h 275.625 v 90 H 798.75 Z"
         style="fill:none;stroke:#000000;stroke-width:5.625;stroke-linecap:butt;stroke-linejoin:miter;stroke-miterlimit:10;stroke-dasharray:none;stroke-opacity:1"
         id="path178" />
      <g
         id="g180"
         transform="scale(10)">
        <text
           xml:space="preserve"
           transform="matrix(1,0,0,-1,81,33.5316)"
           style="font-variant:normal;font-weight:normal;font-size:4.5px;font-family:Courier;-inkscape-font-specification:Courier;writing-mode:lr-tb;fill:#000000;fill-opacity:1;fill-rule:nonzero;stroke:none"
           id="text184"><tspan
             x="0 2.7 5.4000001 8.1000004 10.8 13.5 16.200001 18.9 21.6"
             y="0"
             id="tspan182">EMBEDDING</tspan></text>
      </g>
      <path
         d="m 1361.25,301.566 h 275.625 v 90 H 1361.25 Z"
         style="fill:none;stroke:#000000;stroke-width:5.625;stroke-linecap:butt;stroke-linejoin:miter;stroke-miterlimit:10;stroke-dasharray:none;stroke-opacity:1"
         id="path186" />
      <g
         id="g188"
         transform="scale(10)">
        <text
           xml:space="preserve"
           transform="matrix(1,0,0,-1,137.25,32.9691)"
           style="font-variant:normal;font-weight:normal;font-size:4.5px;font-family:Courier;-inkscape-font-specification:Courier;writing-mode:lr-tb;fill:#000000;fill-opacity:1;fill-rule:nonzero;stroke:none"
           id="text192"><tspan
             x="0 2.7 5.4000001 8.1000004 10.8 13.5 16.200001 18.9 21.6"
             y="0"
             id="tspan190">EMBEDDING</tspan></text>
      </g>
      <path
         d="m 444.375,1837.19 h 202.5 V 1015.94 H 798.75 v 39.38"
         style="fill:none;stroke:#000000;stroke-width:5.625;stroke-linecap:butt;stroke-linejoin:miter;stroke-miterlimit:1;stroke-dasharray:none;stroke-opacity:1"
         id="path194" />
      <path
         d="m 798.75,1100.32 16.875,-45 h -33.75"
         style="fill:#ffffff;fill-opacity:1;fill-rule:nonzero;stroke:none"
         id="path196" />
      <path
         d="m 798.75,1100.32 16.875,-45 h -33.75"
         style="fill:#000000;fill-opacity:1;fill-rule:nonzero;stroke:none"
         id="path198" />
      <path
         d="m 1130.63,1837.19 h 90 v -821.25 h 146.25 v 39.38"
         style="fill:none;stroke:#000000;stroke-width:5.625;stroke-linecap:butt;stroke-linejoin:miter;stroke-miterlimit:1;stroke-dasharray:none;stroke-opacity:1"
         id="path200" />
      <path
         d="m 1366.88,1100.32 16.87,-45 H 1350"
         style="fill:#ffffff;fill-opacity:1;fill-rule:nonzero;stroke:none"
         id="path202" />
      <path
         d="m 1366.88,1100.32 16.87,-45 H 1350"
         style="fill:#000000;fill-opacity:1;fill-rule:nonzero;stroke:none"
         id="path204" />
      <path
         d="m 1636.88,1831.57 h 112.5 v -815.63 h 168.75 l -2.64,39.47"
         style="fill:none;stroke:#000000;stroke-width:5.625;stroke-linecap:butt;stroke-linejoin:miter;stroke-miterlimit:1;stroke-dasharray:none;stroke-opacity:1"
         id="path206" />
      <path
         d="m 1912.5,1100.32 19.83,-43.78 -33.67,-2.25"
         style="fill:#ffffff;fill-opacity:1;fill-rule:nonzero;stroke:none"
         id="path208" />
      <path
         d="m 1912.5,1100.32 19.83,-43.78 -33.67,-2.25"
         style="fill:#000000;fill-opacity:1;fill-rule:nonzero;stroke:none"
         id="path210" />
      <path
         d="m 1035,1134.07 v 90"
         style="fill:none;stroke:#000000;stroke-width:5.625;stroke-linecap:butt;stroke-linejoin:miter;stroke-miterlimit:1;stroke-dasharray:none;stroke-opacity:1"
         id="path212" />
      <path
         d="m 1035,1269.07 16.88,-45 h -33.75"
         style="fill:#ffffff;fill-opacity:1;fill-rule:nonzero;stroke:none"
         id="path214" />
      <path
         d="m 1035,1269.07 16.88,-45 h -33.75"
         style="fill:#000000;fill-opacity:1;fill-rule:nonzero;stroke:none"
         id="path216" />
      <path
         d="m 1608.75,1134.07 v 101.25"
         style="fill:none;stroke:#000000;stroke-width:5.625;stroke-linecap:butt;stroke-linejoin:miter;stroke-miterlimit:1;stroke-dasharray:none;stroke-opacity:1"
         id="path218" />
      <path
         d="m 1608.75,1280.32 16.88,-45 h -33.75"
         style="fill:#ffffff;fill-opacity:1;fill-rule:nonzero;stroke:none"
         id="path220" />
      <path
         d="m 1608.75,1280.32 16.88,-45 h -33.75"
         style="fill:#000000;fill-opacity:1;fill-rule:nonzero;stroke:none"
         id="path222" />
      <path
         d="m 2148.75,1122.82 v 112.5"
         style="fill:none;stroke:#000000;stroke-width:5.625;stroke-linecap:butt;stroke-linejoin:miter;stroke-miterlimit:1;stroke-dasharray:none;stroke-opacity:1"
         id="path224" />
      <path
         d="m 2148.75,1280.32 16.88,-45 h -33.75"
         style="fill:#ffffff;fill-opacity:1;fill-rule:nonzero;stroke:none"
         id="path226" />
      <path
         d="m 2148.75,1280.32 16.88,-45 h -33.75"
         style="fill:#000000;fill-opacity:1;fill-rule:nonzero;stroke:none"
         id="path228" />
      <path
         d="m 73.125,616.566 h 90"
         style="fill:none;stroke:#000000;stroke-width:5.625;stroke-linecap:butt;stroke-linejoin:miter;stroke-miterlimit:1;stroke-dasharray:none;stroke-opacity:1"
         id="path230" />
      <path
         d="m 208.125,616.566 -45,-16.875 v 33.75"
         style="fill:#ffffff;fill-opacity:1;fill-rule:nonzero;stroke:none"
         id="path232" />
      <path
         d="m 208.125,616.566 -45,-16.875 v 33.75"
         style="fill:#000000;fill-opacity:1;fill-rule:nonzero;stroke:none"
         id="path234" />
      <path
         d="M 607.5,1409.69 V 852.816 h 348.75 l 27.539,65.399"
         style="fill:none;stroke:#000000;stroke-width:5.625;stroke-linecap:butt;stroke-linejoin:miter;stroke-miterlimit:1;stroke-dasharray:none;stroke-opacity:1"
         id="path236" />
      <path
         d="m 1001.25,959.691 -1.91,-48.023 -31.106,13.098"
         style="fill:#ffffff;fill-opacity:1;fill-rule:nonzero;stroke:none"
         id="path238" />
      <path
         d="m 1001.25,959.691 -1.91,-48.023 -31.106,13.098"
         style="fill:#000000;fill-opacity:1;fill-rule:nonzero;stroke:none"
         id="path240" />
      <path
         d="m 2221.88,1404.07 h 157.5"
         style="fill:none;stroke:#000000;stroke-width:5.625;stroke-linecap:butt;stroke-linejoin:miter;stroke-miterlimit:1;stroke-dasharray:none;stroke-opacity:1"
         id="path242" />
      <path
         d="m 2424.38,1404.07 -45,-16.88 v 33.75"
         style="fill:#ffffff;fill-opacity:1;fill-rule:nonzero;stroke:none"
         id="path244" />
      <path
         d="m 2424.38,1404.07 -45,-16.88 v 33.75"
         style="fill:#000000;fill-opacity:1;fill-rule:nonzero;stroke:none"
         id="path246" />
      <path
         d="m 596.25,627.816 v 191.25 H 540 l -28.082,108.313"
         style="fill:none;stroke:#000000;stroke-width:5.625;stroke-linecap:butt;stroke-linejoin:miter;stroke-miterlimit:1;stroke-dasharray:none;stroke-opacity:1"
         id="path248" />
      <path
         d="m 500.625,970.941 27.629,-39.328 -32.672,-8.468"
         style="fill:#ffffff;fill-opacity:1;fill-rule:nonzero;stroke:none"
         id="path250" />
      <path
         d="m 500.625,970.941 27.629,-39.328 -32.672,-8.468"
         style="fill:#000000;fill-opacity:1;fill-rule:nonzero;stroke:none"
         id="path252" />
      <path
         d="m 663.75,1100.32 h 275.625 v 90 H 663.75 Z"
         style="fill:none;stroke:#000000;stroke-width:5.625;stroke-linecap:butt;stroke-linejoin:miter;stroke-miterlimit:10;stroke-dasharray:none;stroke-opacity:1"
         id="path254" />
      <g
         id="g256"
         transform="scale(10)">
        <text
           xml:space="preserve"
           transform="matrix(1,0,0,-1,67.5,112.844)"
           style="font-variant:normal;font-weight:normal;font-size:4.5px;font-family:Courier;-inkscape-font-specification:Courier;writing-mode:lr-tb;fill:#000000;fill-opacity:1;fill-rule:nonzero;stroke:none"
           id="text260"><tspan
             x="0 2.7 5.4000001 8.1000004 10.8 13.5 16.200001 18.9 21.6"
             y="0"
             id="tspan258">EMBEDDING</tspan></text>
      </g>
      <path
         d="m 798.75,1190.32 70.648,52.05"
         style="fill:none;stroke:#000000;stroke-width:5.625;stroke-linecap:butt;stroke-linejoin:miter;stroke-miterlimit:1;stroke-dasharray:none;stroke-opacity:1"
         id="path262" />
      <path
         d="m 905.625,1269.07 -26.219,-40.28 -20.019,27.17"
         style="fill:#ffffff;fill-opacity:1;fill-rule:nonzero;stroke:none"
         id="path264" />
      <path
         d="m 905.625,1269.07 -26.219,-40.28 -20.019,27.17"
         style="fill:#000000;fill-opacity:1;fill-rule:nonzero;stroke:none"
         id="path266" />
      <path
         d="m 1237.5,1100.32 h 275.625 v 90 H 1237.5 Z"
         style="fill:none;stroke:#000000;stroke-width:5.625;stroke-linecap:butt;stroke-linejoin:miter;stroke-miterlimit:10;stroke-dasharray:none;stroke-opacity:1"
         id="path268" />
      <g
         id="g270"
         transform="scale(10)">
        <text
           xml:space="preserve"
           transform="matrix(1,0,0,-1,124.875,112.844)"
           style="font-variant:normal;font-weight:normal;font-size:4.5px;font-family:Courier;-inkscape-font-specification:Courier;writing-mode:lr-tb;fill:#000000;fill-opacity:1;fill-rule:nonzero;stroke:none"
           id="text274"><tspan
             x="0 2.7 5.4000001 8.1000004 10.8 13.5 16.200001 18.9 21.6"
             y="0"
             id="tspan272">EMBEDDING</tspan></text>
      </g>
      <path
         d="m 1355.63,1195.94 70.64,52.06"
         style="fill:none;stroke:#000000;stroke-width:5.625;stroke-linecap:butt;stroke-linejoin:miter;stroke-miterlimit:1;stroke-dasharray:none;stroke-opacity:1"
         id="path276" />
      <path
         d="m 1462.5,1274.69 -26.22,-40.28 -20.02,27.17"
         style="fill:#ffffff;fill-opacity:1;fill-rule:nonzero;stroke:none"
         id="path278" />
      <path
         d="m 1462.5,1274.69 -26.22,-40.28 -20.02,27.17"
         style="fill:#000000;fill-opacity:1;fill-rule:nonzero;stroke:none"
         id="path280" />
      <path
         d="m 1771.88,1094.69 h 275.625 v 90 H 1771.88 Z"
         style="fill:none;stroke:#000000;stroke-width:5.625;stroke-linecap:butt;stroke-linejoin:miter;stroke-miterlimit:10;stroke-dasharray:none;stroke-opacity:1"
         id="path282" />
      <g
         id="g284"
         transform="scale(10)">
        <text
           xml:space="preserve"
           transform="matrix(1,0,0,-1,178.313,112.282)"
           style="font-variant:normal;font-weight:normal;font-size:4.5px;font-family:Courier;-inkscape-font-specification:Courier;writing-mode:lr-tb;fill:#000000;fill-opacity:1;fill-rule:nonzero;stroke:none"
           id="text288"><tspan
             x="0 2.7 5.4000001 8.1000004 10.8 13.5 16.200001 18.9 21.6"
             y="0"
             id="tspan286">EMBEDDING</tspan></text>
      </g>
      <path
         d="m 1890,1190.32 70.65,52.05"
         style="fill:none;stroke:#000000;stroke-width:5.625;stroke-linecap:butt;stroke-linejoin:miter;stroke-miterlimit:1;stroke-dasharray:none;stroke-opacity:1"
         id="path290" />
      <path
         d="m 1996.88,1269.07 -26.22,-40.28 -20.02,27.17"
         style="fill:#ffffff;fill-opacity:1;fill-rule:nonzero;stroke:none"
         id="path292" />
      <path
         d="m 1996.88,1269.07 -26.22,-40.28 -20.02,27.17"
         style="fill:#000000;fill-opacity:1;fill-rule:nonzero;stroke:none"
         id="path294" />
      <path
         d="M 601.875,819.066 H 2233.13 l -30.77,92.309"
         style="fill:none;stroke:#000000;stroke-width:5.625;stroke-linecap:butt;stroke-linejoin:miter;stroke-miterlimit:1;stroke-dasharray:none;stroke-opacity:1"
         id="path296" />
      <path
         d="m 2188.13,954.066 30.23,-37.355 -32.01,-10.672"
         style="fill:#ffffff;fill-opacity:1;fill-rule:nonzero;stroke:none"
         id="path298" />
      <path
         d="m 2188.13,954.066 30.23,-37.355 -32.01,-10.672"
         style="fill:#000000;fill-opacity:1;fill-rule:nonzero;stroke:none"
         id="path300" />
      <path
         d="M 1693.13,824.691 1662.36,917"
         style="fill:none;stroke:#000000;stroke-width:5.625;stroke-linecap:butt;stroke-linejoin:miter;stroke-miterlimit:1;stroke-dasharray:none;stroke-opacity:1"
         id="path302" />
      <path
         d="m 1648.13,959.691 30.23,-37.355 -32.01,-10.672"
         style="fill:#ffffff;fill-opacity:1;fill-rule:nonzero;stroke:none"
         id="path304" />
      <path
         d="m 1648.13,959.691 30.23,-37.355 -32.01,-10.672"
         style="fill:#000000;fill-opacity:1;fill-rule:nonzero;stroke:none"
         id="path306" />
      <path
         d="m 1130.63,824.691 -38.95,93.461"
         style="fill:none;stroke:#000000;stroke-width:5.625;stroke-linecap:butt;stroke-linejoin:miter;stroke-miterlimit:1;stroke-dasharray:none;stroke-opacity:1"
         id="path308" />
      <path
         d="m 1074.38,959.691 32.88,-35.05 -31.15,-12.981"
         style="fill:#ffffff;fill-opacity:1;fill-rule:nonzero;stroke:none"
         id="path310" />
      <path
         d="m 1074.38,959.691 32.88,-35.05 -31.15,-12.981"
         style="fill:#000000;fill-opacity:1;fill-rule:nonzero;stroke:none"
         id="path312" />
      <path
         d="M 1170,633.441 V 819.066"
         style="fill:none;stroke:#000000;stroke-width:5.625;stroke-linecap:butt;stroke-linejoin:miter;stroke-miterlimit:1;stroke-dasharray:none;stroke-opacity:1"
         id="path314" />
      <path
         d="m 1743.75,633.441 v 191.25"
         style="fill:none;stroke:#000000;stroke-width:5.625;stroke-linecap:butt;stroke-linejoin:miter;stroke-miterlimit:1;stroke-dasharray:none;stroke-opacity:1"
         id="path316" />
      <g
         id="g318"
         transform="scale(10)">
        <text
           xml:space="preserve"
           transform="matrix(1,0,0,-1,46.9125,119.032)"
           style="font-variant:normal;font-weight:normal;font-size:6.75px;font-family:Courier;-inkscape-font-specification:Courier;writing-mode:lr-tb;fill:#000000;fill-opacity:1;fill-rule:nonzero;stroke:none"
           id="text336"><tspan
             x="0"
             y="0"
             id="tspan320">u</tspan><tspan
             x="-4.0500002 4.0500002"
             y="4.5"
             id="tspan322"> 1</tspan><tspan
             x="59.625"
             y="0"
             id="tspan324">u</tspan><tspan
             x="55.575001 63.674999"
             y="4.5"
             id="tspan326"> 2</tspan><tspan
             x="115.3125"
             y="-0.5625"
             id="tspan328">u</tspan><tspan
             x="111.2625 119.3625"
             y="3.9375"
             id="tspan330"> 3</tspan><tspan
             x="169.875"
             y="-0.5625"
             id="tspan332">u</tspan><tspan
             x="165.825 173.925"
             y="3.9375"
             id="tspan334"> 4</tspan></text>
      </g>
      <path
         d="M 1181.25,1409.69 V 852.816 h 331.88 l 61.89,77.36"
         style="fill:none;stroke:#000000;stroke-width:5.625;stroke-linecap:butt;stroke-linejoin:miter;stroke-miterlimit:1;stroke-dasharray:none;stroke-opacity:1"
         id="path338" />
      <path
         d="m 1603.13,965.316 -14.94,-45.683 -26.35,21.086"
         style="fill:#ffffff;fill-opacity:1;fill-rule:nonzero;stroke:none"
         id="path340" />
      <path
         d="m 1603.13,965.316 -14.94,-45.683 -26.35,21.086"
         style="fill:#000000;fill-opacity:1;fill-rule:nonzero;stroke:none"
         id="path342" />
      <path
         d="M 1726.88,1404.07 V 847.191 h 354.37 l 28.29,70.715"
         style="fill:none;stroke:#000000;stroke-width:5.625;stroke-linecap:butt;stroke-linejoin:miter;stroke-miterlimit:1;stroke-dasharray:none;stroke-opacity:1"
         id="path344" />
      <path
         d="m 2126.25,959.691 -1.04,-48.05 -31.34,12.535"
         style="fill:#ffffff;fill-opacity:1;fill-rule:nonzero;stroke:none"
         id="path346" />
      <path
         d="m 2126.25,959.691 -1.04,-48.05 -31.34,12.535"
         style="fill:#000000;fill-opacity:1;fill-rule:nonzero;stroke:none"
         id="path348" />
      <path
         d="M 11.25,1404.07 H 208.125"
         style="fill:none;stroke:#000000;stroke-width:5.625;stroke-linecap:butt;stroke-linejoin:miter;stroke-miterlimit:1;stroke-dasharray:none;stroke-opacity:1"
         id="path350" />
      <path
         d="m 253.125,1404.07 -45,-16.88 v 33.75"
         style="fill:#ffffff;fill-opacity:1;fill-rule:nonzero;stroke:none"
         id="path352" />
      <path
         d="m 253.125,1404.07 -45,-16.88 v 33.75"
         style="fill:#000000;fill-opacity:1;fill-rule:nonzero;stroke:none"
         id="path354" />
      <path
         d="M 61.875,1409.69 V 847.191 h 315 l 24.508,70.024"
         style="fill:none;stroke:#000000;stroke-width:5.625;stroke-linecap:butt;stroke-linejoin:miter;stroke-miterlimit:1;stroke-dasharray:none;stroke-opacity:1"
         id="path356" />
      <path
         d="m 416.25,959.691 1.063,-48.05 -31.856,11.148"
         style="fill:#ffffff;fill-opacity:1;fill-rule:nonzero;stroke:none"
         id="path358" />
      <path
         d="m 416.25,959.691 1.063,-48.05 -31.856,11.148"
         style="fill:#000000;fill-opacity:1;fill-rule:nonzero;stroke:none"
         id="path360" />
      <g
         id="g362"
         transform="scale(10)">
        <text
           xml:space="preserve"
           transform="matrix(1,0,0,-1,35.4375,166.844)"
           style="font-variant:normal;font-weight:normal;font-size:5.625px;font-family:Courier;-inkscape-font-specification:Courier;writing-mode:lr-tb;fill:#000000;fill-opacity:1;fill-rule:nonzero;stroke:none"
           id="text368"><tspan
             x="0"
             y="0"
             id="tspan364">W</tspan><tspan
             x="0 3.375"
             y="2.8125"
             id="tspan366"> 0</tspan></text>
      </g>
      <path
         d="m 438.75,1679.69 c 0,-27.96 -25.187,-50.62 -56.25,-50.62 -31.062,0 -56.25,22.66 -56.25,50.62 0,27.96 25.188,50.63 56.25,50.63 31.063,0 56.25,-22.67 56.25,-50.63"
         style="fill:none;stroke:#000000;stroke-width:5.625;stroke-linecap:butt;stroke-linejoin:miter;stroke-miterlimit:1;stroke-dasharray:none;stroke-opacity:1"
         id="path370" />
      <path
         d="m 388.125,1730.32 v 33.75"
         style="fill:none;stroke:#000000;stroke-width:5.625;stroke-linecap:butt;stroke-linejoin:miter;stroke-miterlimit:1;stroke-dasharray:none;stroke-opacity:1"
         id="path372" />
      <path
         d="m 388.125,1809.07 16.875,-45 h -33.75"
         style="fill:#ffffff;fill-opacity:1;fill-rule:nonzero;stroke:none"
         id="path374" />
      <path
         d="m 388.125,1809.07 16.875,-45 h -33.75"
         style="fill:#000000;fill-opacity:1;fill-rule:nonzero;stroke:none"
         id="path376" />
      <g
         id="g378"
         transform="scale(10)">
        <text
           xml:space="preserve"
           transform="matrix(1,0,0,-1,41.625,174.719)"
           style="font-variant:normal;font-weight:normal;font-size:5.625px;font-family:Courier;-inkscape-font-specification:Courier;writing-mode:lr-tb;fill:#000000;fill-opacity:1;fill-rule:nonzero;stroke:none"
           id="text382"><tspan
             x="0 3.375"
             y="0"
             id="tspan380">sm</tspan></text>
      </g>
      <path
         d="m 950.625,1550.32 v 33.75"
         style="fill:none;stroke:#000000;stroke-width:5.625;stroke-linecap:butt;stroke-linejoin:miter;stroke-miterlimit:1;stroke-dasharray:none;stroke-opacity:1"
         id="path384" />
      <path
         d="m 950.625,1629.07 16.875,-45 h -33.75"
         style="fill:#ffffff;fill-opacity:1;fill-rule:nonzero;stroke:none"
         id="path386" />
      <path
         d="m 950.625,1629.07 16.875,-45 h -33.75"
         style="fill:#000000;fill-opacity:1;fill-rule:nonzero;stroke:none"
         id="path388" />
      <g
         id="g390"
         transform="scale(10)">
        <text
           xml:space="preserve"
           transform="matrix(1,0,0,-1,91.6875,167.407)"
           style="font-variant:normal;font-weight:normal;font-size:5.625px;font-family:Courier;-inkscape-font-specification:Courier;writing-mode:lr-tb;fill:#000000;fill-opacity:1;fill-rule:nonzero;stroke:none"
           id="text396"><tspan
             x="0"
             y="0"
             id="tspan392">W</tspan><tspan
             x="0 3.375"
             y="2.8125"
             id="tspan394"> 0</tspan></text>
      </g>
      <path
         d="m 1001.25,1679.69 c 0,-27.96 -25.187,-50.62 -56.25,-50.62 -31.062,0 -56.25,22.66 -56.25,50.62 0,27.96 25.188,50.63 56.25,50.63 31.063,0 56.25,-22.67 56.25,-50.63"
         style="fill:none;stroke:#000000;stroke-width:5.625;stroke-linecap:butt;stroke-linejoin:miter;stroke-miterlimit:1;stroke-dasharray:none;stroke-opacity:1"
         id="path398" />
      <path
         d="m 950.625,1730.32 v 33.75"
         style="fill:none;stroke:#000000;stroke-width:5.625;stroke-linecap:butt;stroke-linejoin:miter;stroke-miterlimit:1;stroke-dasharray:none;stroke-opacity:1"
         id="path400" />
      <path
         d="m 950.625,1809.07 16.875,-45 h -33.75"
         style="fill:#ffffff;fill-opacity:1;fill-rule:nonzero;stroke:none"
         id="path402" />
      <path
         d="m 950.625,1809.07 16.875,-45 h -33.75"
         style="fill:#000000;fill-opacity:1;fill-rule:nonzero;stroke:none"
         id="path404" />
      <g
         id="g406"
         transform="scale(10)">
        <text
           xml:space="preserve"
           transform="matrix(1,0,0,-1,97.875,174.719)"
           style="font-variant:normal;font-weight:normal;font-size:5.625px;font-family:Courier;-inkscape-font-specification:Courier;writing-mode:lr-tb;fill:#000000;fill-opacity:1;fill-rule:nonzero;stroke:none"
           id="text410"><tspan
             x="0 3.375"
             y="0"
             id="tspan408">sm</tspan></text>
      </g>
      <path
         d="m 1501.88,1550.32 v 33.75"
         style="fill:none;stroke:#000000;stroke-width:5.625;stroke-linecap:butt;stroke-linejoin:miter;stroke-miterlimit:1;stroke-dasharray:none;stroke-opacity:1"
         id="path412" />
      <path
         d="m 1501.88,1629.07 16.87,-45 H 1485"
         style="fill:#ffffff;fill-opacity:1;fill-rule:nonzero;stroke:none"
         id="path414" />
      <path
         d="m 1501.88,1629.07 16.87,-45 H 1485"
         style="fill:#000000;fill-opacity:1;fill-rule:nonzero;stroke:none"
         id="path416" />
      <g
         id="g418"
         transform="scale(10)">
        <text
           xml:space="preserve"
           transform="matrix(1,0,0,-1,146.813,166.844)"
           style="font-variant:normal;font-weight:normal;font-size:5.625px;font-family:Courier;-inkscape-font-specification:Courier;writing-mode:lr-tb;fill:#000000;fill-opacity:1;fill-rule:nonzero;stroke:none"
           id="text424"><tspan
             x="0"
             y="0"
             id="tspan420">W</tspan><tspan
             x="0 3.375"
             y="2.8125"
             id="tspan422"> 0</tspan></text>
      </g>
      <path
         d="m 1552.5,1679.69 c 0,-27.96 -25.19,-50.62 -56.25,-50.62 -31.06,0 -56.25,22.66 -56.25,50.62 0,27.96 25.19,50.63 56.25,50.63 31.06,0 56.25,-22.67 56.25,-50.63"
         style="fill:none;stroke:#000000;stroke-width:5.625;stroke-linecap:butt;stroke-linejoin:miter;stroke-miterlimit:1;stroke-dasharray:none;stroke-opacity:1"
         id="path426" />
      <path
         d="m 1501.88,1730.32 v 33.75"
         style="fill:none;stroke:#000000;stroke-width:5.625;stroke-linecap:butt;stroke-linejoin:miter;stroke-miterlimit:1;stroke-dasharray:none;stroke-opacity:1"
         id="path428" />
      <path
         d="m 1501.88,1809.07 16.87,-45 H 1485"
         style="fill:#ffffff;fill-opacity:1;fill-rule:nonzero;stroke:none"
         id="path430" />
      <path
         d="m 1501.88,1809.07 16.87,-45 H 1485"
         style="fill:#000000;fill-opacity:1;fill-rule:nonzero;stroke:none"
         id="path432" />
      <g
         id="g434"
         transform="scale(10)">
        <text
           xml:space="preserve"
           transform="matrix(1,0,0,-1,153,174.719)"
           style="font-variant:normal;font-weight:normal;font-size:5.625px;font-family:Courier;-inkscape-font-specification:Courier;writing-mode:lr-tb;fill:#000000;fill-opacity:1;fill-rule:nonzero;stroke:none"
           id="text438"><tspan
             x="0 3.375"
             y="0"
             id="tspan436">sm</tspan></text>
      </g>
      <path
         d="m 2058.75,1550.32 v 33.75"
         style="fill:none;stroke:#000000;stroke-width:5.625;stroke-linecap:butt;stroke-linejoin:miter;stroke-miterlimit:1;stroke-dasharray:none;stroke-opacity:1"
         id="path440" />
      <path
         d="m 2058.75,1629.07 16.88,-45 h -33.75"
         style="fill:#ffffff;fill-opacity:1;fill-rule:nonzero;stroke:none"
         id="path442" />
      <path
         d="m 2058.75,1629.07 16.88,-45 h -33.75"
         style="fill:#000000;fill-opacity:1;fill-rule:nonzero;stroke:none"
         id="path444" />
      <g
         id="g446"
         transform="scale(10)">
        <text
           xml:space="preserve"
           transform="matrix(1,0,0,-1,202.5,166.844)"
           style="font-variant:normal;font-weight:normal;font-size:5.625px;font-family:Courier;-inkscape-font-specification:Courier;writing-mode:lr-tb;fill:#000000;fill-opacity:1;fill-rule:nonzero;stroke:none"
           id="text452"><tspan
             x="0"
             y="0"
             id="tspan448">W</tspan><tspan
             x="0 3.375"
             y="2.8125"
             id="tspan450"> 0</tspan></text>
      </g>
      <path
         d="m 2109.38,1679.69 c 0,-27.96 -25.19,-50.62 -56.25,-50.62 -31.07,0 -56.25,22.66 -56.25,50.62 0,27.96 25.18,50.63 56.25,50.63 31.06,0 56.25,-22.67 56.25,-50.63"
         style="fill:none;stroke:#000000;stroke-width:5.625;stroke-linecap:butt;stroke-linejoin:miter;stroke-miterlimit:1;stroke-dasharray:none;stroke-opacity:1"
         id="path454" />
      <path
         d="m 2058.75,1730.32 v 33.75"
         style="fill:none;stroke:#000000;stroke-width:5.625;stroke-linecap:butt;stroke-linejoin:miter;stroke-miterlimit:1;stroke-dasharray:none;stroke-opacity:1"
         id="path456" />
      <path
         d="m 2058.75,1809.07 16.88,-45 h -33.75"
         style="fill:#ffffff;fill-opacity:1;fill-rule:nonzero;stroke:none"
         id="path458" />
      <path
         d="m 2058.75,1809.07 16.88,-45 h -33.75"
         style="fill:#000000;fill-opacity:1;fill-rule:nonzero;stroke:none"
         id="path460" />
      <g
         id="g462"
         transform="scale(10)">
        <text
           xml:space="preserve"
           transform="matrix(1,0,0,-1,208.688,174.719)"
           style="font-variant:normal;font-weight:normal;font-size:5.625px;font-family:Courier;-inkscape-font-specification:Courier;writing-mode:lr-tb;fill:#000000;fill-opacity:1;fill-rule:nonzero;stroke:none"
           id="text466"><tspan
             x="0 3.375"
             y="0"
             id="tspan464">sm</tspan></text>
        <text
           xml:space="preserve"
           transform="matrix(1,0,0,-1,180.563,39.719)"
           style="font-variant:normal;font-weight:normal;font-size:11.25px;font-family:Courier;-inkscape-font-specification:Courier;writing-mode:lr-tb;fill:#000000;fill-opacity:1;fill-rule:nonzero;stroke:none"
           id="text476"><tspan
             x="0 6.75 13.5 20.25 27 33.75 40.5"
             y="0"
             id="tspan468">ENCODER</tspan><tspan
             x="38.8125 45.5625 52.3125 59.0625 65.8125 72.5625 79.3125"
             y="-122.625"
             id="tspan470">DECODER</tspan><tspan
             x="50.0625 56.8125 63.5625 70.3125 77.0625 83.8125 90.5625 97.3125 104.0625"
             y="-59.625"
             id="tspan472">ATTENTION</tspan><tspan
             x="63.5625 70.3125 77.0625 83.8125 90.5625"
             y="-51.1875"
             id="tspan474">MODEL</tspan></text>
      </g>
    </g>
  </g>
</svg>
