<?xml version="1.0" encoding="UTF-8" standalone="no"?>
<!DOCTYPE svg PUBLIC "-//W3C//DTD SVG 1.1//EN"
 "http://www.w3.org/Graphics/SVG/1.1/DTD/svg11.dtd">
<!-- Generated by graphviz version 2.43.0 (0)
 -->
<!-- Title: %3 Pages: 1 -->
<svg width="482pt" height="393pt"
 viewBox="0.00 0.00 482.00 393.00" xmlns="http://www.w3.org/2000/svg" xmlns:xlink="http://www.w3.org/1999/xlink">
<g id="graph0" class="graph" transform="scale(1 1) rotate(0) translate(4 389)">
<title>%3</title>
<polygon fill="white" stroke="transparent" points="-4,4 -4,-389 478,-389 478,4 -4,4"/>
<!-- WE -->
<g id="node1" class="node">
<title>WE</title>
<polygon fill="none" stroke="black" points="167.5,-86.5 167.5,-132.5 403.5,-132.5 403.5,-86.5 167.5,-86.5"/>
<text text-anchor="middle" x="236.5" y="-105.8" font-family="Times,serif" font-size="14.00">Word embedding</text>
<polyline fill="none" stroke="black" points="305.5,-86.5 305.5,-132.5 "/>
<text text-anchor="middle" x="339.5" y="-117.3" font-family="Times,serif" font-size="14.00">output:</text>
<polyline fill="none" stroke="black" points="305.5,-109.5 373.5,-109.5 "/>
<text text-anchor="middle" x="339.5" y="-94.3" font-family="Times,serif" font-size="14.00">input:</text>
<polyline fill="none" stroke="black" points="373.5,-86.5 373.5,-132.5 "/>
<text text-anchor="middle" x="388.5" y="-117.3" font-family="Times,serif" font-size="14.00">m</text>
<polyline fill="none" stroke="black" points="373.5,-109.5 403.5,-109.5 "/>
<text text-anchor="middle" x="388.5" y="-94.3" font-family="Times,serif" font-size="14.00">V</text>
</g>
<!-- HL -->
<g id="node2" class="node">
<title>HL</title>
<polygon fill="none" stroke="black" points="0,-169.5 0,-215.5 363,-215.5 363,-169.5 0,-169.5"/>
<text text-anchor="middle" x="109" y="-188.8" font-family="Times,serif" font-size="14.00">MLP (Hidden layer weights)</text>
<polyline fill="none" stroke="black" points="218,-169.5 218,-215.5 "/>
<text text-anchor="middle" x="252" y="-200.3" font-family="Times,serif" font-size="14.00">output:</text>
<polyline fill="none" stroke="black" points="218,-192.5 286,-192.5 "/>
<text text-anchor="middle" x="252" y="-177.3" font-family="Times,serif" font-size="14.00">input:</text>
<polyline fill="none" stroke="black" points="286,-169.5 286,-215.5 "/>
<text text-anchor="middle" x="324.5" y="-200.3" font-family="Times,serif" font-size="14.00">h</text>
<polyline fill="none" stroke="black" points="286,-192.5 363,-192.5 "/>
<text text-anchor="middle" x="324.5" y="-177.3" font-family="Times,serif" font-size="14.00">m · (n&#45;1)</text>
</g>
<!-- WE&#45;&gt;HL -->
<g id="edge1" class="edge">
<title>WE&#45;&gt;HL</title>
<path fill="none" stroke="black" d="M257.08,-132.63C245.04,-142.01 230.87,-153.05 218.06,-163.02"/>
<polygon fill="black" stroke="black" points="215.62,-160.49 209.88,-169.39 219.92,-166.01 215.62,-160.49"/>
</g>
<!-- OL -->
<g id="node3" class="node">
<title>OL</title>
<polygon fill="none" stroke="black" points="97,-252.5 97,-298.5 474,-298.5 474,-252.5 97,-252.5"/>
<text text-anchor="middle" x="198" y="-271.8" font-family="Times,serif" font-size="14.00">Softmax (Output weights)</text>
<polyline fill="none" stroke="black" points="299,-252.5 299,-298.5 "/>
<text text-anchor="middle" x="333" y="-283.3" font-family="Times,serif" font-size="14.00">output:</text>
<polyline fill="none" stroke="black" points="299,-275.5 367,-275.5 "/>
<text text-anchor="middle" x="333" y="-260.3" font-family="Times,serif" font-size="14.00">input:</text>
<polyline fill="none" stroke="black" points="367,-252.5 367,-298.5 "/>
<text text-anchor="middle" x="420.5" y="-283.3" font-family="Times,serif" font-size="14.00">V</text>
<polyline fill="none" stroke="black" points="367,-275.5 474,-275.5 "/>
<text text-anchor="middle" x="420.5" y="-260.3" font-family="Times,serif" font-size="14.00">h + m · (n&#45;1)</text>
</g>
<!-- WE&#45;&gt;OL -->
<g id="edge3" class="edge">
<title>WE&#45;&gt;OL</title>
<path fill="none" stroke="black" d="M334.79,-132.53C349.27,-141.62 363.39,-153.68 371.5,-169 381.27,-187.46 381.27,-197.54 371.5,-216 364.98,-228.33 354.56,-238.54 343.19,-246.8"/>
<polygon fill="black" stroke="black" points="341.12,-243.97 334.79,-252.47 345.04,-249.78 341.12,-243.97"/>
</g>
<!-- HL&#45;&gt;OL -->
<g id="edge2" class="edge">
<title>HL&#45;&gt;OL</title>
<path fill="none" stroke="black" d="M209.92,-215.63C221.96,-225.01 236.13,-236.05 248.94,-246.02"/>
<polygon fill="black" stroke="black" points="247.08,-249.01 257.12,-252.39 251.38,-243.49 247.08,-249.01"/>
</g>
<!-- wo -->
<g id="node7" class="node">
<title>wo</title>
<ellipse fill="none" stroke="black" cx="285.5" cy="-360" rx="25" ry="25"/>
<text text-anchor="start" x="276" y="-357.3" font-family="Times,serif" font-size="14.00">W</text>
<text text-anchor="start" x="291" y="-357.3" font-family="Times,serif" baseline-shift="sub" font-size="14.00">i</text>
</g>
<!-- OL&#45;&gt;wo -->
<g id="edge7" class="edge">
<title>OL&#45;&gt;wo</title>
<path fill="none" stroke="black" d="M285.5,-298.61C285.5,-306.64 285.5,-315.91 285.5,-324.74"/>
<polygon fill="black" stroke="black" points="282,-324.8 285.5,-334.8 289,-324.8 282,-324.8"/>
</g>
<!-- wb -->
<g id="node4" class="node">
<title>wb</title>
<ellipse fill="none" stroke="black" cx="217.5" cy="-25" rx="25" ry="25"/>
<text text-anchor="start" x="196.5" y="-22.3" font-family="Times,serif" font-size="14.00">W</text>
<text text-anchor="start" x="211.5" y="-22.3" font-family="Times,serif" baseline-shift="sub" font-size="14.00">i&#45;n&#45;1</text>
</g>
<!-- wb&#45;&gt;WE -->
<g id="edge4" class="edge">
<title>wb&#45;&gt;WE</title>
<path fill="none" stroke="black" d="M232.93,-44.72C241.13,-54.67 251.4,-67.13 260.69,-78.4"/>
<polygon fill="black" stroke="black" points="258.17,-80.85 267.24,-86.34 263.58,-76.4 258.17,-80.85"/>
</g>
<!-- wm -->
<g id="node5" class="node">
<title>wm</title>
<ellipse fill="none" stroke="black" cx="285.5" cy="-25" rx="25" ry="25"/>
<text text-anchor="middle" x="285.5" y="-21.3" font-family="Times,serif" font-size="14.00">...</text>
</g>
<!-- wm&#45;&gt;WE -->
<g id="edge5" class="edge">
<title>wm&#45;&gt;WE</title>
<path fill="none" stroke="black" d="M285.5,-50.31C285.5,-58.42 285.5,-67.58 285.5,-76.2"/>
<polygon fill="black" stroke="black" points="282,-76.34 285.5,-86.34 289,-76.34 282,-76.34"/>
</g>
<!-- we -->
<g id="node6" class="node">
<title>we</title>
<ellipse fill="none" stroke="black" cx="353.5" cy="-25" rx="25" ry="25"/>
<text text-anchor="start" x="338" y="-22.3" font-family="Times,serif" font-size="14.00">W</text>
<text text-anchor="start" x="353" y="-22.3" font-family="Times,serif" baseline-shift="sub" font-size="14.00">i&#45;1</text>
</g>
<!-- we&#45;&gt;WE -->
<g id="edge6" class="edge">
<title>we&#45;&gt;WE</title>
<path fill="none" stroke="black" d="M338.07,-44.72C329.87,-54.67 319.6,-67.13 310.31,-78.4"/>
<polygon fill="black" stroke="black" points="307.42,-76.4 303.76,-86.34 312.83,-80.85 307.42,-76.4"/>
</g>
</g>
</svg>
