<?xml version="1.0" encoding="UTF-8" standalone="no"?>
<!DOCTYPE svg PUBLIC "-//W3C//DTD SVG 1.1//EN"
 "http://www.w3.org/Graphics/SVG/1.1/DTD/svg11.dtd">
<!-- Generated by graphviz version 2.43.0 (0)
 -->
<!-- Title: %3 Pages: 1 -->
<svg width="534pt" height="424pt"
 viewBox="0.00 0.00 534.00 424.00" xmlns="http://www.w3.org/2000/svg" xmlns:xlink="http://www.w3.org/1999/xlink">
<g id="graph0" class="graph" transform="scale(1 1) rotate(0) translate(4 420)">
<title>%3</title>
<polygon fill="white" stroke="transparent" points="-4,4 -4,-420 530,-420 530,4 -4,4"/>
<g id="clust1" class="cluster">
<title>cluster_0</title>
</g>
<!-- a0 -->
<g id="node1" class="node">
<title>a0</title>
<ellipse fill="none" stroke="transparent" cx="492" cy="-34" rx="18" ry="18"/>
</g>
<!-- b0 -->
<g id="node2" class="node">
<title>b0</title>
<ellipse fill="none" stroke="transparent" cx="492" cy="-121" rx="18" ry="18"/>
</g>
<!-- a0&#45;&gt;b0 -->
<!-- c0 -->
<g id="node3" class="node">
<title>c0</title>
<ellipse fill="none" stroke="transparent" cx="492" cy="-208" rx="18" ry="18"/>
</g>
<!-- b0&#45;&gt;c0 -->
<!-- d0 -->
<g id="node4" class="node">
<title>d0</title>
<ellipse fill="none" stroke="transparent" cx="492" cy="-295" rx="18" ry="18"/>
</g>
<!-- c0&#45;&gt;d0 -->
<!-- c1 -->
<g id="node7" class="node">
<title>c1</title>
<ellipse fill="none" stroke="black" cx="406" cy="-208" rx="18" ry="18"/>
</g>
<!-- c0&#45;&gt;c1 -->
<g id="edge27" class="edge">
<title>c0&#45;&gt;c1</title>
<path fill="none" stroke="black" d="M463.51,-208C450.57,-208 435.64,-208 424.24,-208"/>
<polygon fill="black" stroke="black" points="463.79,-211.5 473.79,-208 463.79,-204.5 463.79,-211.5"/>
<text text-anchor="start" x="433" y="-194.8" font-family="Times,serif" font-size="14.00">h</text>
<text text-anchor="start" x="443" y="-194.8" font-family="Times,serif" baseline-shift="sub" font-size="14.00">t+2</text>
</g>
<!-- a1 -->
<g id="node5" class="node">
<title>a1</title>
<ellipse fill="none" stroke="transparent" cx="406" cy="-34" rx="18" ry="18"/>
<text text-anchor="middle" x="406" y="-30.3" font-family="Times,serif" font-size="14.00">blue</text>
</g>
<!-- b1 -->
<g id="node6" class="node">
<title>b1</title>
<ellipse fill="none" stroke="black" cx="406" cy="-121" rx="18" ry="18"/>
<text text-anchor="middle" x="406" y="-117.3" font-family="Times,serif" font-size="14.00">WE</text>
</g>
<!-- a1&#45;&gt;b1 -->
<g id="edge4" class="edge">
<title>a1&#45;&gt;b1</title>
<path fill="none" stroke="black" d="M406,-52.2C406,-63.84 406,-79.45 406,-92.76"/>
<polygon fill="black" stroke="black" points="402.5,-92.82 406,-102.82 409.5,-92.82 402.5,-92.82"/>
<text text-anchor="start" x="406" y="-74.8" font-family="Times,serif" font-size="14.00">w</text>
<text text-anchor="start" x="419" y="-74.8" font-family="Times,serif" baseline-shift="sub" font-size="14.00">t+2</text>
</g>
<!-- b1&#45;&gt;c1 -->
<g id="edge5" class="edge">
<title>b1&#45;&gt;c1</title>
<path fill="none" stroke="black" d="M406,-139.2C406,-150.84 406,-166.45 406,-179.76"/>
<polygon fill="black" stroke="black" points="402.5,-179.82 406,-189.82 409.5,-179.82 402.5,-179.82"/>
<text text-anchor="start" x="406" y="-161.8" font-family="Times,serif" font-size="14.00">e</text>
<text text-anchor="start" x="415" y="-161.8" font-family="Times,serif" baseline-shift="sub" font-size="14.00">t+2</text>
</g>
<!-- d1 -->
<g id="node8" class="node">
<title>d1</title>
<ellipse fill="none" stroke="black" cx="406" cy="-295" rx="18" ry="18"/>
<text text-anchor="middle" x="406" y="-291.3" font-family="Times,serif" font-size="14.00">SM</text>
</g>
<!-- c1&#45;&gt;d1 -->
<g id="edge6" class="edge">
<title>c1&#45;&gt;d1</title>
<path fill="none" stroke="black" d="M406,-226.2C406,-237.84 406,-253.45 406,-266.76"/>
<polygon fill="black" stroke="black" points="402.5,-266.82 406,-276.82 409.5,-266.82 402.5,-266.82"/>
<text text-anchor="start" x="406" y="-248.8" font-family="Times,serif" font-size="14.00">a</text>
<text text-anchor="start" x="415" y="-248.8" font-family="Times,serif" baseline-shift="sub" font-size="14.00">t+2</text>
</g>
<!-- c2 -->
<g id="node12" class="node">
<title>c2</title>
<ellipse fill="none" stroke="black" cx="320" cy="-208" rx="18" ry="18"/>
</g>
<!-- c1&#45;&gt;c2 -->
<g id="edge28" class="edge">
<title>c1&#45;&gt;c2</title>
<path fill="none" stroke="black" d="M377.51,-208C364.57,-208 349.64,-208 338.24,-208"/>
<polygon fill="black" stroke="black" points="377.79,-211.5 387.79,-208 377.79,-204.5 377.79,-211.5"/>
<text text-anchor="start" x="347" y="-194.8" font-family="Times,serif" font-size="14.00">h</text>
<text text-anchor="start" x="357" y="-194.8" font-family="Times,serif" baseline-shift="sub" font-size="14.00">t+1</text>
</g>
<!-- e1 -->
<g id="node9" class="node">
<title>e1</title>
<ellipse fill="none" stroke="transparent" cx="406" cy="-382" rx="18" ry="18"/>
<text text-anchor="middle" x="406" y="-378.3" font-family="Times,serif" font-size="14.00">.</text>
</g>
<!-- d1&#45;&gt;e1 -->
<g id="edge7" class="edge">
<title>d1&#45;&gt;e1</title>
<path fill="none" stroke="black" d="M406,-313.2C406,-324.84 406,-340.45 406,-353.76"/>
<polygon fill="black" stroke="black" points="402.5,-353.82 406,-363.82 409.5,-353.82 402.5,-353.82"/>
<text text-anchor="start" x="406" y="-335.8" font-family="Times,serif" font-size="14.00">y</text>
<text text-anchor="start" x="415" y="-335.8" font-family="Times,serif" baseline-shift="sub" font-size="14.00">t+3</text>
</g>
<!-- a2 -->
<g id="node10" class="node">
<title>a2</title>
<ellipse fill="none" stroke="transparent" cx="320" cy="-34" rx="18" ry="18"/>
<text text-anchor="middle" x="320" y="-30.3" font-family="Times,serif" font-size="14.00">is</text>
</g>
<!-- b2 -->
<g id="node11" class="node">
<title>b2</title>
<ellipse fill="none" stroke="black" cx="320" cy="-121" rx="18" ry="18"/>
<text text-anchor="middle" x="320" y="-117.3" font-family="Times,serif" font-size="14.00">WE</text>
</g>
<!-- a2&#45;&gt;b2 -->
<g id="edge8" class="edge">
<title>a2&#45;&gt;b2</title>
<path fill="none" stroke="black" d="M320,-52.2C320,-63.84 320,-79.45 320,-92.76"/>
<polygon fill="black" stroke="black" points="316.5,-92.82 320,-102.82 323.5,-92.82 316.5,-92.82"/>
<text text-anchor="start" x="320" y="-74.8" font-family="Times,serif" font-size="14.00">w</text>
<text text-anchor="start" x="333" y="-74.8" font-family="Times,serif" baseline-shift="sub" font-size="14.00">t+1</text>
</g>
<!-- b2&#45;&gt;c2 -->
<g id="edge9" class="edge">
<title>b2&#45;&gt;c2</title>
<path fill="none" stroke="black" d="M320,-139.2C320,-150.84 320,-166.45 320,-179.76"/>
<polygon fill="black" stroke="black" points="316.5,-179.82 320,-189.82 323.5,-179.82 316.5,-179.82"/>
<text text-anchor="start" x="320" y="-161.8" font-family="Times,serif" font-size="14.00">e</text>
<text text-anchor="start" x="329" y="-161.8" font-family="Times,serif" baseline-shift="sub" font-size="14.00">t+1</text>
</g>
<!-- d2 -->
<g id="node13" class="node">
<title>d2</title>
<ellipse fill="none" stroke="black" cx="320" cy="-295" rx="18" ry="18"/>
<text text-anchor="middle" x="320" y="-291.3" font-family="Times,serif" font-size="14.00">SM</text>
</g>
<!-- c2&#45;&gt;d2 -->
<g id="edge10" class="edge">
<title>c2&#45;&gt;d2</title>
<path fill="none" stroke="black" d="M320,-226.2C320,-237.84 320,-253.45 320,-266.76"/>
<polygon fill="black" stroke="black" points="316.5,-266.82 320,-276.82 323.5,-266.82 316.5,-266.82"/>
<text text-anchor="start" x="320" y="-248.8" font-family="Times,serif" font-size="14.00">a</text>
<text text-anchor="start" x="329" y="-248.8" font-family="Times,serif" baseline-shift="sub" font-size="14.00">t+1</text>
</g>
<!-- c3 -->
<g id="node17" class="node">
<title>c3</title>
<ellipse fill="none" stroke="black" cx="248" cy="-208" rx="18" ry="18"/>
</g>
<!-- c2&#45;&gt;c3 -->
<g id="edge29" class="edge">
<title>c2&#45;&gt;c3</title>
<path fill="none" stroke="black" d="M291.58,-208C283.03,-208 273.87,-208 266.17,-208"/>
<polygon fill="black" stroke="black" points="291.59,-211.5 301.59,-208 291.59,-204.5 291.59,-211.5"/>
<text text-anchor="start" x="276.5" y="-194.8" font-family="Times,serif" font-size="14.00">h</text>
<text text-anchor="start" x="286.5" y="-194.8" font-family="Times,serif" baseline-shift="sub" font-size="14.00">t</text>
</g>
<!-- e2 -->
<g id="node14" class="node">
<title>e2</title>
<ellipse fill="none" stroke="transparent" cx="320" cy="-382" rx="18" ry="18"/>
<text text-anchor="middle" x="320" y="-378.3" font-family="Times,serif" font-size="14.00">blue</text>
</g>
<!-- d2&#45;&gt;e2 -->
<g id="edge11" class="edge">
<title>d2&#45;&gt;e2</title>
<path fill="none" stroke="black" d="M320,-313.2C320,-324.84 320,-340.45 320,-353.76"/>
<polygon fill="black" stroke="black" points="316.5,-353.82 320,-363.82 323.5,-353.82 316.5,-353.82"/>
<text text-anchor="start" x="320" y="-335.8" font-family="Times,serif" font-size="14.00">y</text>
<text text-anchor="start" x="329" y="-335.8" font-family="Times,serif" baseline-shift="sub" font-size="14.00">t+2</text>
</g>
<!-- a3 -->
<g id="node15" class="node">
<title>a3</title>
<ellipse fill="none" stroke="transparent" cx="248" cy="-34" rx="18" ry="18"/>
<text text-anchor="middle" x="248" y="-30.3" font-family="Times,serif" font-size="14.00">house</text>
</g>
<!-- b3 -->
<g id="node16" class="node">
<title>b3</title>
<ellipse fill="none" stroke="black" cx="248" cy="-121" rx="18" ry="18"/>
<text text-anchor="middle" x="248" y="-117.3" font-family="Times,serif" font-size="14.00">WE</text>
</g>
<!-- a3&#45;&gt;b3 -->
<g id="edge12" class="edge">
<title>a3&#45;&gt;b3</title>
<path fill="none" stroke="black" d="M248,-52.2C248,-63.84 248,-79.45 248,-92.76"/>
<polygon fill="black" stroke="black" points="244.5,-92.82 248,-102.82 251.5,-92.82 244.5,-92.82"/>
<text text-anchor="start" x="248" y="-74.8" font-family="Times,serif" font-size="14.00">w</text>
<text text-anchor="start" x="261" y="-74.8" font-family="Times,serif" baseline-shift="sub" font-size="14.00">t</text>
</g>
<!-- b3&#45;&gt;c3 -->
<g id="edge13" class="edge">
<title>b3&#45;&gt;c3</title>
<path fill="none" stroke="black" d="M248,-139.2C248,-150.84 248,-166.45 248,-179.76"/>
<polygon fill="black" stroke="black" points="244.5,-179.82 248,-189.82 251.5,-179.82 244.5,-179.82"/>
<text text-anchor="start" x="248" y="-161.8" font-family="Times,serif" font-size="14.00">e</text>
<text text-anchor="start" x="257" y="-161.8" font-family="Times,serif" baseline-shift="sub" font-size="14.00">t</text>
</g>
<!-- d3 -->
<g id="node18" class="node">
<title>d3</title>
<ellipse fill="none" stroke="black" cx="248" cy="-295" rx="18" ry="18"/>
<text text-anchor="middle" x="248" y="-291.3" font-family="Times,serif" font-size="14.00">SM</text>
</g>
<!-- c3&#45;&gt;d3 -->
<g id="edge14" class="edge">
<title>c3&#45;&gt;d3</title>
<path fill="none" stroke="black" d="M248,-226.2C248,-237.84 248,-253.45 248,-266.76"/>
<polygon fill="black" stroke="black" points="244.5,-266.82 248,-276.82 251.5,-266.82 244.5,-266.82"/>
<text text-anchor="start" x="248" y="-248.8" font-family="Times,serif" font-size="14.00">a</text>
<text text-anchor="start" x="257" y="-248.8" font-family="Times,serif" baseline-shift="sub" font-size="14.00">t</text>
</g>
<!-- c4 -->
<g id="node22" class="node">
<title>c4</title>
<ellipse fill="none" stroke="black" cx="168" cy="-208" rx="18" ry="18"/>
</g>
<!-- c3&#45;&gt;c4 -->
<g id="edge30" class="edge">
<title>c3&#45;&gt;c4</title>
<path fill="none" stroke="black" d="M219.75,-208C208.58,-208 196.07,-208 186.15,-208"/>
<polygon fill="black" stroke="black" points="219.92,-211.5 229.92,-208 219.92,-204.5 219.92,-211.5"/>
<text text-anchor="start" x="195" y="-194.8" font-family="Times,serif" font-size="14.00">h</text>
<text text-anchor="start" x="205" y="-194.8" font-family="Times,serif" baseline-shift="sub" font-size="14.00">t&#45;1</text>
</g>
<!-- e3 -->
<g id="node19" class="node">
<title>e3</title>
<ellipse fill="none" stroke="transparent" cx="248" cy="-382" rx="18" ry="18"/>
<text text-anchor="middle" x="248" y="-378.3" font-family="Times,serif" font-size="14.00">is</text>
</g>
<!-- d3&#45;&gt;e3 -->
<g id="edge15" class="edge">
<title>d3&#45;&gt;e3</title>
<path fill="none" stroke="black" d="M248,-313.2C248,-324.84 248,-340.45 248,-353.76"/>
<polygon fill="black" stroke="black" points="244.5,-353.82 248,-363.82 251.5,-353.82 244.5,-353.82"/>
<text text-anchor="start" x="248" y="-335.8" font-family="Times,serif" font-size="14.00">y</text>
<text text-anchor="start" x="257" y="-335.8" font-family="Times,serif" baseline-shift="sub" font-size="14.00">t+1</text>
</g>
<!-- a4 -->
<g id="node20" class="node">
<title>a4</title>
<ellipse fill="none" stroke="transparent" cx="168" cy="-34" rx="18" ry="18"/>
<text text-anchor="middle" x="168" y="-30.3" font-family="Times,serif" font-size="14.00">the</text>
</g>
<!-- b4 -->
<g id="node21" class="node">
<title>b4</title>
<ellipse fill="none" stroke="black" cx="168" cy="-121" rx="18" ry="18"/>
<text text-anchor="middle" x="168" y="-117.3" font-family="Times,serif" font-size="14.00">WE</text>
</g>
<!-- a4&#45;&gt;b4 -->
<g id="edge16" class="edge">
<title>a4&#45;&gt;b4</title>
<path fill="none" stroke="black" d="M168,-52.2C168,-63.84 168,-79.45 168,-92.76"/>
<polygon fill="black" stroke="black" points="164.5,-92.82 168,-102.82 171.5,-92.82 164.5,-92.82"/>
<text text-anchor="start" x="168" y="-74.8" font-family="Times,serif" font-size="14.00">w</text>
<text text-anchor="start" x="181" y="-74.8" font-family="Times,serif" baseline-shift="sub" font-size="14.00">t&#45;1</text>
</g>
<!-- b4&#45;&gt;c4 -->
<g id="edge17" class="edge">
<title>b4&#45;&gt;c4</title>
<path fill="none" stroke="black" d="M168,-139.2C168,-150.84 168,-166.45 168,-179.76"/>
<polygon fill="black" stroke="black" points="164.5,-179.82 168,-189.82 171.5,-179.82 164.5,-179.82"/>
<text text-anchor="start" x="168" y="-161.8" font-family="Times,serif" font-size="14.00">e</text>
<text text-anchor="start" x="177" y="-161.8" font-family="Times,serif" baseline-shift="sub" font-size="14.00">t&#45;1</text>
</g>
<!-- d4 -->
<g id="node23" class="node">
<title>d4</title>
<ellipse fill="none" stroke="black" cx="168" cy="-295" rx="18" ry="18"/>
<text text-anchor="middle" x="168" y="-291.3" font-family="Times,serif" font-size="14.00">SM</text>
</g>
<!-- c4&#45;&gt;d4 -->
<g id="edge18" class="edge">
<title>c4&#45;&gt;d4</title>
<path fill="none" stroke="black" d="M168,-226.2C168,-237.84 168,-253.45 168,-266.76"/>
<polygon fill="black" stroke="black" points="164.5,-266.82 168,-276.82 171.5,-266.82 164.5,-266.82"/>
<text text-anchor="start" x="168" y="-248.8" font-family="Times,serif" font-size="14.00">a</text>
<text text-anchor="start" x="177" y="-248.8" font-family="Times,serif" baseline-shift="sub" font-size="14.00">t&#45;1</text>
</g>
<!-- c5 -->
<g id="node27" class="node">
<title>c5</title>
<ellipse fill="none" stroke="black" cx="88" cy="-208" rx="18" ry="18"/>
</g>
<!-- c4&#45;&gt;c5 -->
<g id="edge31" class="edge">
<title>c4&#45;&gt;c5</title>
<path fill="none" stroke="black" d="M139.75,-208C128.58,-208 116.07,-208 106.15,-208"/>
<polygon fill="black" stroke="black" points="139.92,-211.5 149.92,-208 139.92,-204.5 139.92,-211.5"/>
<text text-anchor="start" x="115" y="-194.8" font-family="Times,serif" font-size="14.00">h</text>
<text text-anchor="start" x="125" y="-194.8" font-family="Times,serif" baseline-shift="sub" font-size="14.00">t&#45;2</text>
</g>
<!-- e4 -->
<g id="node24" class="node">
<title>e4</title>
<ellipse fill="none" stroke="transparent" cx="168" cy="-382" rx="18" ry="18"/>
<text text-anchor="middle" x="168" y="-378.3" font-family="Times,serif" font-size="14.00">house</text>
</g>
<!-- d4&#45;&gt;e4 -->
<g id="edge19" class="edge">
<title>d4&#45;&gt;e4</title>
<path fill="none" stroke="black" d="M168,-313.2C168,-324.84 168,-340.45 168,-353.76"/>
<polygon fill="black" stroke="black" points="164.5,-353.82 168,-363.82 171.5,-353.82 164.5,-353.82"/>
<text text-anchor="start" x="168" y="-335.8" font-family="Times,serif" font-size="14.00">y</text>
<text text-anchor="start" x="177" y="-335.8" font-family="Times,serif" baseline-shift="sub" font-size="14.00">t</text>
</g>
<!-- a5 -->
<g id="node25" class="node">
<title>a5</title>
<ellipse fill="none" stroke="transparent" cx="88" cy="-34" rx="18" ry="18"/>
<text text-anchor="middle" x="88" y="-30.3" font-family="Times,serif" font-size="14.00">&lt;s&gt;</text>
</g>
<!-- b5 -->
<g id="node26" class="node">
<title>b5</title>
<ellipse fill="none" stroke="black" cx="88" cy="-121" rx="18" ry="18"/>
<text text-anchor="middle" x="88" y="-117.3" font-family="Times,serif" font-size="14.00">WE</text>
</g>
<!-- a5&#45;&gt;b5 -->
<g id="edge20" class="edge">
<title>a5&#45;&gt;b5</title>
<path fill="none" stroke="black" d="M88,-52.2C88,-63.84 88,-79.45 88,-92.76"/>
<polygon fill="black" stroke="black" points="84.5,-92.82 88,-102.82 91.5,-92.82 84.5,-92.82"/>
<text text-anchor="start" x="88" y="-74.8" font-family="Times,serif" font-size="14.00">w</text>
<text text-anchor="start" x="101" y="-74.8" font-family="Times,serif" baseline-shift="sub" font-size="14.00">t&#45;2</text>
</g>
<!-- b5&#45;&gt;c5 -->
<g id="edge21" class="edge">
<title>b5&#45;&gt;c5</title>
<path fill="none" stroke="black" d="M88,-139.2C88,-150.84 88,-166.45 88,-179.76"/>
<polygon fill="black" stroke="black" points="84.5,-179.82 88,-189.82 91.5,-179.82 84.5,-179.82"/>
<text text-anchor="start" x="88" y="-161.8" font-family="Times,serif" font-size="14.00">e</text>
<text text-anchor="start" x="97" y="-161.8" font-family="Times,serif" baseline-shift="sub" font-size="14.00">t&#45;2</text>
</g>
<!-- d5 -->
<g id="node28" class="node">
<title>d5</title>
<ellipse fill="none" stroke="black" cx="88" cy="-295" rx="18" ry="18"/>
<text text-anchor="middle" x="88" y="-291.3" font-family="Times,serif" font-size="14.00">SM</text>
</g>
<!-- c5&#45;&gt;d5 -->
<g id="edge22" class="edge">
<title>c5&#45;&gt;d5</title>
<path fill="none" stroke="black" d="M88,-226.2C88,-237.84 88,-253.45 88,-266.76"/>
<polygon fill="black" stroke="black" points="84.5,-266.82 88,-276.82 91.5,-266.82 84.5,-266.82"/>
<text text-anchor="start" x="88" y="-248.8" font-family="Times,serif" font-size="14.00">a</text>
<text text-anchor="start" x="97" y="-248.8" font-family="Times,serif" baseline-shift="sub" font-size="14.00">t&#45;2</text>
</g>
<!-- e5 -->
<g id="node29" class="node">
<title>e5</title>
<ellipse fill="none" stroke="transparent" cx="88" cy="-382" rx="18" ry="18"/>
<text text-anchor="middle" x="88" y="-378.3" font-family="Times,serif" font-size="14.00">the</text>
</g>
<!-- d5&#45;&gt;e5 -->
<g id="edge23" class="edge">
<title>d5&#45;&gt;e5</title>
<path fill="none" stroke="black" d="M88,-313.2C88,-324.84 88,-340.45 88,-353.76"/>
<polygon fill="black" stroke="black" points="84.5,-353.82 88,-363.82 91.5,-353.82 84.5,-353.82"/>
<text text-anchor="start" x="88" y="-335.8" font-family="Times,serif" font-size="14.00">y</text>
<text text-anchor="start" x="97" y="-335.8" font-family="Times,serif" baseline-shift="sub" font-size="14.00">t&#45;1</text>
</g>
<!-- a6 -->
<g id="node30" class="node">
<title>a6</title>
<ellipse fill="none" stroke="transparent" cx="34" cy="-34" rx="18" ry="18"/>
</g>
<!-- b6 -->
<g id="node31" class="node">
<title>b6</title>
<ellipse fill="none" stroke="transparent" cx="34" cy="-121" rx="18" ry="18"/>
</g>
<!-- a6&#45;&gt;b6 -->
<!-- c6 -->
<g id="node32" class="node">
<title>c6</title>
<ellipse fill="none" stroke="transparent" cx="34" cy="-208" rx="18" ry="18"/>
</g>
<!-- b6&#45;&gt;c6 -->
<!-- d6 -->
<g id="node33" class="node">
<title>d6</title>
<ellipse fill="none" stroke="transparent" cx="34" cy="-295" rx="18" ry="18"/>
</g>
<!-- c6&#45;&gt;d6 -->
</g>
</svg>
