<?xml version="1.0" encoding="UTF-8" standalone="no"?>
<!DOCTYPE svg PUBLIC "-//W3C//DTD SVG 1.1//EN"
 "http://www.w3.org/Graphics/SVG/1.1/DTD/svg11.dtd">
<!-- Generated by graphviz version 2.43.0 (0)
 -->
<!-- Title: %3 Pages: 1 -->
<svg width="994pt" height="424pt"
 viewBox="0.00 0.00 994.00 424.00" xmlns="http://www.w3.org/2000/svg" xmlns:xlink="http://www.w3.org/1999/xlink">
<g id="graph0" class="graph" transform="scale(1 1) rotate(0) translate(4 420)">
<title>%3</title>
<polygon fill="white" stroke="transparent" points="-4,4 -4,-420 990,-420 990,4 -4,4"/>
<g id="clust1" class="cluster">
<title>cluster_0</title>
</g>
<!-- a0 -->
<g id="node1" class="node">
<title>a0</title>
<ellipse fill="none" stroke="transparent" cx="952" cy="-34" rx="18" ry="18"/>
</g>
<!-- b0 -->
<g id="node2" class="node">
<title>b0</title>
<ellipse fill="none" stroke="transparent" cx="952" cy="-121" rx="18" ry="18"/>
</g>
<!-- a0&#45;&gt;b0 -->
<!-- c0 -->
<g id="node3" class="node">
<title>c0</title>
<ellipse fill="none" stroke="transparent" cx="952" cy="-208" rx="18" ry="18"/>
</g>
<!-- b0&#45;&gt;c0 -->
<!-- d0 -->
<g id="node4" class="node">
<title>d0</title>
<ellipse fill="none" stroke="transparent" cx="952" cy="-295" rx="18" ry="18"/>
</g>
<!-- c0&#45;&gt;d0 -->
<!-- c1 -->
<g id="node7" class="node">
<title>c1</title>
<ellipse fill="none" stroke="black" cx="868" cy="-208" rx="18" ry="18"/>
</g>
<!-- c0&#45;&gt;c1 -->
<g id="edge51" class="edge">
<title>c0&#45;&gt;c1</title>
<path fill="none" stroke="black" d="M923.54,-208C911.21,-208 897.12,-208 886.23,-208"/>
<polygon fill="black" stroke="black" points="923.81,-211.5 933.81,-208 923.81,-204.5 923.81,-211.5"/>
<text text-anchor="start" x="895" y="-194.8" font-family="Times,serif" font-size="14.00">s</text>
<text text-anchor="start" x="903" y="-194.8" font-family="Times,serif" baseline-shift="sub" font-size="14.00">t+2</text>
</g>
<!-- a1 -->
<g id="node5" class="node">
<title>a1</title>
<ellipse fill="none" stroke="transparent" cx="868" cy="-34" rx="18" ry="18"/>
<text text-anchor="middle" x="868" y="-30.3" font-family="Times,serif" font-size="14.00">blanca</text>
</g>
<!-- b1 -->
<g id="node6" class="node">
<title>b1</title>
<ellipse fill="none" stroke="black" cx="868" cy="-121" rx="18" ry="18"/>
<text text-anchor="middle" x="868" y="-117.3" font-family="Times,serif" font-size="14.00">WE</text>
</g>
<!-- a1&#45;&gt;b1 -->
<g id="edge4" class="edge">
<title>a1&#45;&gt;b1</title>
<path fill="none" stroke="black" d="M868,-52.2C868,-63.84 868,-79.45 868,-92.76"/>
<polygon fill="black" stroke="black" points="864.5,-92.82 868,-102.82 871.5,-92.82 864.5,-92.82"/>
<text text-anchor="start" x="868" y="-74.8" font-family="Times,serif" font-size="14.00">w</text>
<text text-anchor="start" x="881" y="-74.8" font-family="Times,serif" baseline-shift="sub" font-size="14.00">t+2</text>
</g>
<!-- b1&#45;&gt;c1 -->
<g id="edge5" class="edge">
<title>b1&#45;&gt;c1</title>
<path fill="none" stroke="black" d="M868,-139.2C868,-150.84 868,-166.45 868,-179.76"/>
<polygon fill="black" stroke="black" points="864.5,-179.82 868,-189.82 871.5,-179.82 864.5,-179.82"/>
<text text-anchor="start" x="868" y="-161.8" font-family="Times,serif" font-size="14.00">e</text>
<text text-anchor="start" x="877" y="-161.8" font-family="Times,serif" baseline-shift="sub" font-size="14.00">t+2</text>
</g>
<!-- d1 -->
<g id="node8" class="node">
<title>d1</title>
<ellipse fill="none" stroke="black" cx="868" cy="-295" rx="18" ry="18"/>
<text text-anchor="middle" x="868" y="-291.3" font-family="Times,serif" font-size="14.00">SM</text>
</g>
<!-- c1&#45;&gt;d1 -->
<g id="edge6" class="edge">
<title>c1&#45;&gt;d1</title>
<path fill="none" stroke="black" d="M868,-226.2C868,-237.84 868,-253.45 868,-266.76"/>
<polygon fill="black" stroke="black" points="864.5,-266.82 868,-276.82 871.5,-266.82 864.5,-266.82"/>
<text text-anchor="start" x="868" y="-248.8" font-family="Times,serif" font-size="14.00">h</text>
<text text-anchor="start" x="878" y="-248.8" font-family="Times,serif" baseline-shift="sub" font-size="14.00">t+2</text>
</g>
<!-- c2 -->
<g id="node12" class="node">
<title>c2</title>
<ellipse fill="none" stroke="black" cx="784" cy="-208" rx="18" ry="18"/>
</g>
<!-- c1&#45;&gt;c2 -->
<g id="edge52" class="edge">
<title>c1&#45;&gt;c2</title>
<path fill="none" stroke="black" d="M839.54,-208C827.21,-208 813.12,-208 802.23,-208"/>
<polygon fill="black" stroke="black" points="839.81,-211.5 849.81,-208 839.81,-204.5 839.81,-211.5"/>
<text text-anchor="start" x="811" y="-194.8" font-family="Times,serif" font-size="14.00">s</text>
<text text-anchor="start" x="819" y="-194.8" font-family="Times,serif" baseline-shift="sub" font-size="14.00">t+1</text>
</g>
<!-- e1 -->
<g id="node9" class="node">
<title>e1</title>
<ellipse fill="none" stroke="transparent" cx="868" cy="-382" rx="18" ry="18"/>
<text text-anchor="middle" x="868" y="-378.3" font-family="Times,serif" font-size="14.00">&lt;/s&gt;</text>
</g>
<!-- d1&#45;&gt;e1 -->
<g id="edge7" class="edge">
<title>d1&#45;&gt;e1</title>
<path fill="none" stroke="black" d="M868,-313.2C868,-324.84 868,-340.45 868,-353.76"/>
<polygon fill="black" stroke="black" points="864.5,-353.82 868,-363.82 871.5,-353.82 864.5,-353.82"/>
<text text-anchor="start" x="868" y="-335.8" font-family="Times,serif" font-size="14.00">y</text>
<text text-anchor="start" x="877" y="-335.8" font-family="Times,serif" baseline-shift="sub" font-size="14.00">t+3</text>
</g>
<!-- a2 -->
<g id="node10" class="node">
<title>a2</title>
<ellipse fill="none" stroke="transparent" cx="784" cy="-34" rx="18" ry="18"/>
<text text-anchor="middle" x="784" y="-30.3" font-family="Times,serif" font-size="14.00">es</text>
</g>
<!-- b2 -->
<g id="node11" class="node">
<title>b2</title>
<ellipse fill="none" stroke="black" cx="784" cy="-121" rx="18" ry="18"/>
<text text-anchor="middle" x="784" y="-117.3" font-family="Times,serif" font-size="14.00">WE</text>
</g>
<!-- a2&#45;&gt;b2 -->
<g id="edge8" class="edge">
<title>a2&#45;&gt;b2</title>
<path fill="none" stroke="black" d="M784,-52.2C784,-63.84 784,-79.45 784,-92.76"/>
<polygon fill="black" stroke="black" points="780.5,-92.82 784,-102.82 787.5,-92.82 780.5,-92.82"/>
<text text-anchor="start" x="784" y="-74.8" font-family="Times,serif" font-size="14.00">w</text>
<text text-anchor="start" x="797" y="-74.8" font-family="Times,serif" baseline-shift="sub" font-size="14.00">t+1</text>
</g>
<!-- b2&#45;&gt;c2 -->
<g id="edge9" class="edge">
<title>b2&#45;&gt;c2</title>
<path fill="none" stroke="black" d="M784,-139.2C784,-150.84 784,-166.45 784,-179.76"/>
<polygon fill="black" stroke="black" points="780.5,-179.82 784,-189.82 787.5,-179.82 780.5,-179.82"/>
<text text-anchor="start" x="784" y="-161.8" font-family="Times,serif" font-size="14.00">e</text>
<text text-anchor="start" x="793" y="-161.8" font-family="Times,serif" baseline-shift="sub" font-size="14.00">t+1</text>
</g>
<!-- d2 -->
<g id="node13" class="node">
<title>d2</title>
<ellipse fill="none" stroke="black" cx="784" cy="-295" rx="18" ry="18"/>
<text text-anchor="middle" x="784" y="-291.3" font-family="Times,serif" font-size="14.00">SM</text>
</g>
<!-- c2&#45;&gt;d2 -->
<g id="edge10" class="edge">
<title>c2&#45;&gt;d2</title>
<path fill="none" stroke="black" d="M784,-226.2C784,-237.84 784,-253.45 784,-266.76"/>
<polygon fill="black" stroke="black" points="780.5,-266.82 784,-276.82 787.5,-266.82 780.5,-266.82"/>
<text text-anchor="start" x="784" y="-248.8" font-family="Times,serif" font-size="14.00">h</text>
<text text-anchor="start" x="794" y="-248.8" font-family="Times,serif" baseline-shift="sub" font-size="14.00">t+1</text>
</g>
<!-- c3 -->
<g id="node17" class="node">
<title>c3</title>
<ellipse fill="none" stroke="black" cx="712" cy="-208" rx="18" ry="18"/>
</g>
<!-- c2&#45;&gt;c3 -->
<g id="edge53" class="edge">
<title>c2&#45;&gt;c3</title>
<path fill="none" stroke="black" d="M755.58,-208C747.03,-208 737.87,-208 730.17,-208"/>
<polygon fill="black" stroke="black" points="755.59,-211.5 765.59,-208 755.59,-204.5 755.59,-211.5"/>
<text text-anchor="start" x="741.5" y="-194.8" font-family="Times,serif" font-size="14.00">s</text>
<text text-anchor="start" x="749.5" y="-194.8" font-family="Times,serif" baseline-shift="sub" font-size="14.00">t</text>
</g>
<!-- e2 -->
<g id="node14" class="node">
<title>e2</title>
<ellipse fill="none" stroke="transparent" cx="784" cy="-382" rx="18" ry="18"/>
<text text-anchor="middle" x="784" y="-378.3" font-family="Times,serif" font-size="14.00">blanca</text>
</g>
<!-- d2&#45;&gt;e2 -->
<g id="edge11" class="edge">
<title>d2&#45;&gt;e2</title>
<path fill="none" stroke="black" d="M784,-313.2C784,-324.84 784,-340.45 784,-353.76"/>
<polygon fill="black" stroke="black" points="780.5,-353.82 784,-363.82 787.5,-353.82 780.5,-353.82"/>
<text text-anchor="start" x="784" y="-335.8" font-family="Times,serif" font-size="14.00">y</text>
<text text-anchor="start" x="793" y="-335.8" font-family="Times,serif" baseline-shift="sub" font-size="14.00">t+2</text>
</g>
<!-- a3 -->
<g id="node15" class="node">
<title>a3</title>
<ellipse fill="none" stroke="transparent" cx="712" cy="-34" rx="18" ry="18"/>
<text text-anchor="middle" x="712" y="-30.3" font-family="Times,serif" font-size="14.00">casa</text>
</g>
<!-- b3 -->
<g id="node16" class="node">
<title>b3</title>
<ellipse fill="none" stroke="black" cx="712" cy="-121" rx="18" ry="18"/>
<text text-anchor="middle" x="712" y="-117.3" font-family="Times,serif" font-size="14.00">WE</text>
</g>
<!-- a3&#45;&gt;b3 -->
<g id="edge12" class="edge">
<title>a3&#45;&gt;b3</title>
<path fill="none" stroke="black" d="M712,-52.2C712,-63.84 712,-79.45 712,-92.76"/>
<polygon fill="black" stroke="black" points="708.5,-92.82 712,-102.82 715.5,-92.82 708.5,-92.82"/>
<text text-anchor="start" x="712" y="-74.8" font-family="Times,serif" font-size="14.00">w</text>
<text text-anchor="start" x="725" y="-74.8" font-family="Times,serif" baseline-shift="sub" font-size="14.00">t</text>
</g>
<!-- b3&#45;&gt;c3 -->
<g id="edge13" class="edge">
<title>b3&#45;&gt;c3</title>
<path fill="none" stroke="black" d="M712,-139.2C712,-150.84 712,-166.45 712,-179.76"/>
<polygon fill="black" stroke="black" points="708.5,-179.82 712,-189.82 715.5,-179.82 708.5,-179.82"/>
<text text-anchor="start" x="712" y="-161.8" font-family="Times,serif" font-size="14.00">e</text>
<text text-anchor="start" x="721" y="-161.8" font-family="Times,serif" baseline-shift="sub" font-size="14.00">t</text>
</g>
<!-- d3 -->
<g id="node18" class="node">
<title>d3</title>
<ellipse fill="none" stroke="black" cx="712" cy="-295" rx="18" ry="18"/>
<text text-anchor="middle" x="712" y="-291.3" font-family="Times,serif" font-size="14.00">SM</text>
</g>
<!-- c3&#45;&gt;d3 -->
<g id="edge14" class="edge">
<title>c3&#45;&gt;d3</title>
<path fill="none" stroke="black" d="M712,-226.2C712,-237.84 712,-253.45 712,-266.76"/>
<polygon fill="black" stroke="black" points="708.5,-266.82 712,-276.82 715.5,-266.82 708.5,-266.82"/>
<text text-anchor="start" x="712" y="-248.8" font-family="Times,serif" font-size="14.00">h</text>
<text text-anchor="start" x="722" y="-248.8" font-family="Times,serif" baseline-shift="sub" font-size="14.00">t</text>
</g>
<!-- c4 -->
<g id="node22" class="node">
<title>c4</title>
<ellipse fill="none" stroke="black" cx="634" cy="-208" rx="18" ry="18"/>
</g>
<!-- c3&#45;&gt;c4 -->
<g id="edge54" class="edge">
<title>c3&#45;&gt;c4</title>
<path fill="none" stroke="black" d="M683.7,-208C673.15,-208 661.47,-208 652.09,-208"/>
<polygon fill="black" stroke="black" points="683.74,-211.5 693.74,-208 683.74,-204.5 683.74,-211.5"/>
<text text-anchor="start" x="661" y="-194.8" font-family="Times,serif" font-size="14.00">s</text>
<text text-anchor="start" x="669" y="-194.8" font-family="Times,serif" baseline-shift="sub" font-size="14.00">t&#45;1</text>
</g>
<!-- e3 -->
<g id="node19" class="node">
<title>e3</title>
<ellipse fill="none" stroke="transparent" cx="712" cy="-382" rx="18" ry="18"/>
<text text-anchor="middle" x="712" y="-378.3" font-family="Times,serif" font-size="14.00">es</text>
</g>
<!-- d3&#45;&gt;e3 -->
<g id="edge15" class="edge">
<title>d3&#45;&gt;e3</title>
<path fill="none" stroke="black" d="M712,-313.2C712,-324.84 712,-340.45 712,-353.76"/>
<polygon fill="black" stroke="black" points="708.5,-353.82 712,-363.82 715.5,-353.82 708.5,-353.82"/>
<text text-anchor="start" x="712" y="-335.8" font-family="Times,serif" font-size="14.00">y</text>
<text text-anchor="start" x="721" y="-335.8" font-family="Times,serif" baseline-shift="sub" font-size="14.00">t+1</text>
</g>
<!-- a4 -->
<g id="node20" class="node">
<title>a4</title>
<ellipse fill="none" stroke="transparent" cx="634" cy="-34" rx="18" ry="18"/>
<text text-anchor="middle" x="634" y="-30.3" font-family="Times,serif" font-size="14.00">la</text>
</g>
<!-- b4 -->
<g id="node21" class="node">
<title>b4</title>
<ellipse fill="none" stroke="black" cx="634" cy="-121" rx="18" ry="18"/>
<text text-anchor="middle" x="634" y="-117.3" font-family="Times,serif" font-size="14.00">WE</text>
</g>
<!-- a4&#45;&gt;b4 -->
<g id="edge16" class="edge">
<title>a4&#45;&gt;b4</title>
<path fill="none" stroke="black" d="M634,-52.2C634,-63.84 634,-79.45 634,-92.76"/>
<polygon fill="black" stroke="black" points="630.5,-92.82 634,-102.82 637.5,-92.82 630.5,-92.82"/>
<text text-anchor="start" x="634" y="-74.8" font-family="Times,serif" font-size="14.00">w</text>
<text text-anchor="start" x="647" y="-74.8" font-family="Times,serif" baseline-shift="sub" font-size="14.00">t&#45;1</text>
</g>
<!-- b4&#45;&gt;c4 -->
<g id="edge17" class="edge">
<title>b4&#45;&gt;c4</title>
<path fill="none" stroke="black" d="M634,-139.2C634,-150.84 634,-166.45 634,-179.76"/>
<polygon fill="black" stroke="black" points="630.5,-179.82 634,-189.82 637.5,-179.82 630.5,-179.82"/>
<text text-anchor="start" x="634" y="-161.8" font-family="Times,serif" font-size="14.00">e</text>
<text text-anchor="start" x="643" y="-161.8" font-family="Times,serif" baseline-shift="sub" font-size="14.00">t&#45;1</text>
</g>
<!-- d4 -->
<g id="node23" class="node">
<title>d4</title>
<ellipse fill="none" stroke="black" cx="634" cy="-295" rx="18" ry="18"/>
<text text-anchor="middle" x="634" y="-291.3" font-family="Times,serif" font-size="14.00">SM</text>
</g>
<!-- c4&#45;&gt;d4 -->
<g id="edge18" class="edge">
<title>c4&#45;&gt;d4</title>
<path fill="none" stroke="black" d="M634,-226.2C634,-237.84 634,-253.45 634,-266.76"/>
<polygon fill="black" stroke="black" points="630.5,-266.82 634,-276.82 637.5,-266.82 630.5,-266.82"/>
<text text-anchor="start" x="634" y="-248.8" font-family="Times,serif" font-size="14.00">h</text>
<text text-anchor="start" x="644" y="-248.8" font-family="Times,serif" baseline-shift="sub" font-size="14.00">t&#45;1</text>
</g>
<!-- c5 -->
<g id="node27" class="node">
<title>c5</title>
<ellipse fill="none" stroke="black" cx="556" cy="-208" rx="18" ry="18"/>
</g>
<!-- c4&#45;&gt;c5 -->
<g id="edge55" class="edge">
<title>c4&#45;&gt;c5</title>
<path fill="none" stroke="black" d="M605.7,-208C595.15,-208 583.47,-208 574.09,-208"/>
<polygon fill="black" stroke="black" points="605.74,-211.5 615.74,-208 605.74,-204.5 605.74,-211.5"/>
<text text-anchor="start" x="583" y="-194.8" font-family="Times,serif" font-size="14.00">s</text>
<text text-anchor="start" x="591" y="-194.8" font-family="Times,serif" baseline-shift="sub" font-size="14.00">t&#45;2</text>
</g>
<!-- e4 -->
<g id="node24" class="node">
<title>e4</title>
<ellipse fill="none" stroke="transparent" cx="634" cy="-382" rx="18" ry="18"/>
<text text-anchor="middle" x="634" y="-378.3" font-family="Times,serif" font-size="14.00">casa</text>
</g>
<!-- d4&#45;&gt;e4 -->
<g id="edge19" class="edge">
<title>d4&#45;&gt;e4</title>
<path fill="none" stroke="black" d="M634,-313.2C634,-324.84 634,-340.45 634,-353.76"/>
<polygon fill="black" stroke="black" points="630.5,-353.82 634,-363.82 637.5,-353.82 630.5,-353.82"/>
<text text-anchor="start" x="634" y="-335.8" font-family="Times,serif" font-size="14.00">y</text>
<text text-anchor="start" x="643" y="-335.8" font-family="Times,serif" baseline-shift="sub" font-size="14.00">t</text>
</g>
<!-- a5 -->
<g id="node25" class="node">
<title>a5</title>
<ellipse fill="none" stroke="transparent" cx="556" cy="-34" rx="18" ry="18"/>
<text text-anchor="middle" x="556" y="-30.3" font-family="Times,serif" font-size="14.00">&lt;/s&gt;</text>
</g>
<!-- b5 -->
<g id="node26" class="node">
<title>b5</title>
<ellipse fill="none" stroke="black" cx="556" cy="-121" rx="18" ry="18"/>
<text text-anchor="middle" x="556" y="-117.3" font-family="Times,serif" font-size="14.00">WE</text>
</g>
<!-- a5&#45;&gt;b5 -->
<g id="edge20" class="edge">
<title>a5&#45;&gt;b5</title>
<path fill="none" stroke="black" d="M556,-52.2C556,-63.84 556,-79.45 556,-92.76"/>
<polygon fill="black" stroke="black" points="552.5,-92.82 556,-102.82 559.5,-92.82 552.5,-92.82"/>
<text text-anchor="start" x="556" y="-74.8" font-family="Times,serif" font-size="14.00">w</text>
<text text-anchor="start" x="569" y="-74.8" font-family="Times,serif" baseline-shift="sub" font-size="14.00">t&#45;2</text>
</g>
<!-- b5&#45;&gt;c5 -->
<g id="edge21" class="edge">
<title>b5&#45;&gt;c5</title>
<path fill="none" stroke="black" d="M556,-139.2C556,-150.84 556,-166.45 556,-179.76"/>
<polygon fill="black" stroke="black" points="552.5,-179.82 556,-189.82 559.5,-179.82 552.5,-179.82"/>
<text text-anchor="start" x="556" y="-161.8" font-family="Times,serif" font-size="14.00">e</text>
<text text-anchor="start" x="565" y="-161.8" font-family="Times,serif" baseline-shift="sub" font-size="14.00">t&#45;2</text>
</g>
<!-- d5 -->
<g id="node28" class="node">
<title>d5</title>
<ellipse fill="none" stroke="black" cx="556" cy="-295" rx="18" ry="18"/>
<text text-anchor="middle" x="556" y="-291.3" font-family="Times,serif" font-size="14.00">SM</text>
</g>
<!-- c5&#45;&gt;d5 -->
<g id="edge22" class="edge">
<title>c5&#45;&gt;d5</title>
<path fill="none" stroke="black" d="M556,-226.2C556,-237.84 556,-253.45 556,-266.76"/>
<polygon fill="black" stroke="black" points="552.5,-266.82 556,-276.82 559.5,-266.82 552.5,-266.82"/>
<text text-anchor="start" x="556" y="-248.8" font-family="Times,serif" font-size="14.00">h</text>
<text text-anchor="start" x="566" y="-248.8" font-family="Times,serif" baseline-shift="sub" font-size="14.00">t&#45;2</text>
</g>
<!-- c6 -->
<g id="node32" class="node">
<title>c6</title>
<ellipse fill="none" stroke="black" cx="478" cy="-208" rx="18" ry="18"/>
</g>
<!-- c5&#45;&gt;c6 -->
<g id="edge56" class="edge">
<title>c5&#45;&gt;c6</title>
<path fill="none" stroke="black" d="M527.7,-208C517.15,-208 505.47,-208 496.09,-208"/>
<polygon fill="black" stroke="black" points="527.74,-211.5 537.74,-208 527.74,-204.5 527.74,-211.5"/>
<text text-anchor="start" x="505" y="-194.8" font-family="Times,serif" font-size="14.00">s</text>
<text text-anchor="start" x="513" y="-194.8" font-family="Times,serif" baseline-shift="sub" font-size="14.00">t&#45;3</text>
</g>
<!-- e5 -->
<g id="node29" class="node">
<title>e5</title>
<ellipse fill="none" stroke="transparent" cx="556" cy="-382" rx="18" ry="18"/>
<text text-anchor="middle" x="556" y="-378.3" font-family="Times,serif" font-size="14.00">la</text>
</g>
<!-- d5&#45;&gt;e5 -->
<g id="edge23" class="edge">
<title>d5&#45;&gt;e5</title>
<path fill="none" stroke="black" d="M556,-313.2C556,-324.84 556,-340.45 556,-353.76"/>
<polygon fill="black" stroke="black" points="552.5,-353.82 556,-363.82 559.5,-353.82 552.5,-353.82"/>
<text text-anchor="start" x="556" y="-335.8" font-family="Times,serif" font-size="14.00">y</text>
<text text-anchor="start" x="565" y="-335.8" font-family="Times,serif" baseline-shift="sub" font-size="14.00">t&#45;1</text>
</g>
<!-- a6 -->
<g id="node30" class="node">
<title>a6</title>
<ellipse fill="none" stroke="transparent" cx="478" cy="-34" rx="18" ry="18"/>
<text text-anchor="middle" x="478" y="-30.3" font-family="Times,serif" font-size="14.00">.</text>
</g>
<!-- b6 -->
<g id="node31" class="node">
<title>b6</title>
<ellipse fill="none" stroke="black" cx="478" cy="-121" rx="18" ry="18"/>
<text text-anchor="middle" x="478" y="-117.3" font-family="Times,serif" font-size="14.00">WE</text>
</g>
<!-- a6&#45;&gt;b6 -->
<g id="edge24" class="edge">
<title>a6&#45;&gt;b6</title>
<path fill="none" stroke="black" d="M478,-52.2C478,-63.84 478,-79.45 478,-92.76"/>
<polygon fill="black" stroke="black" points="474.5,-92.82 478,-102.82 481.5,-92.82 474.5,-92.82"/>
<text text-anchor="start" x="478" y="-74.8" font-family="Times,serif" font-size="14.00">w</text>
<text text-anchor="start" x="491" y="-74.8" font-family="Times,serif" baseline-shift="sub" font-size="14.00">t&#45;3</text>
</g>
<!-- b6&#45;&gt;c6 -->
<g id="edge25" class="edge">
<title>b6&#45;&gt;c6</title>
<path fill="none" stroke="black" d="M478,-139.2C478,-150.84 478,-166.45 478,-179.76"/>
<polygon fill="black" stroke="black" points="474.5,-179.82 478,-189.82 481.5,-179.82 474.5,-179.82"/>
<text text-anchor="start" x="478" y="-161.8" font-family="Times,serif" font-size="14.00">e</text>
<text text-anchor="start" x="487" y="-161.8" font-family="Times,serif" baseline-shift="sub" font-size="14.00">t&#45;3</text>
</g>
<!-- d6 -->
<g id="node33" class="node">
<title>d6</title>
<ellipse fill="none" stroke="black" cx="478" cy="-295" rx="18" ry="18"/>
<text text-anchor="middle" x="478" y="-291.3" font-family="Times,serif" font-size="14.00">SM</text>
</g>
<!-- c6&#45;&gt;d6 -->
<g id="edge26" class="edge">
<title>c6&#45;&gt;d6</title>
<path fill="none" stroke="black" d="M478,-226.2C478,-237.84 478,-253.45 478,-266.76"/>
<polygon fill="black" stroke="black" points="474.5,-266.82 478,-276.82 481.5,-266.82 474.5,-266.82"/>
<text text-anchor="start" x="478" y="-248.8" font-family="Times,serif" font-size="14.00">h</text>
<text text-anchor="start" x="488" y="-248.8" font-family="Times,serif" baseline-shift="sub" font-size="14.00">t&#45;3</text>
</g>
<!-- c7 -->
<g id="node37" class="node">
<title>c7</title>
<ellipse fill="none" stroke="black" cx="400" cy="-208" rx="18" ry="18"/>
</g>
<!-- c6&#45;&gt;c7 -->
<g id="edge57" class="edge">
<title>c6&#45;&gt;c7</title>
<path fill="none" stroke="black" d="M449.7,-208C439.15,-208 427.47,-208 418.09,-208"/>
<polygon fill="black" stroke="black" points="449.74,-211.5 459.74,-208 449.74,-204.5 449.74,-211.5"/>
<text text-anchor="start" x="427" y="-194.8" font-family="Times,serif" font-size="14.00">s</text>
<text text-anchor="start" x="435" y="-194.8" font-family="Times,serif" baseline-shift="sub" font-size="14.00">t&#45;4</text>
</g>
<!-- e6 -->
<g id="node34" class="node">
<title>e6</title>
<ellipse fill="none" stroke="transparent" cx="478" cy="-382" rx="18" ry="18"/>
<text text-anchor="middle" x="478" y="-378.3" font-family="Times,serif" font-size="14.00">&lt;/s&gt;</text>
</g>
<!-- d6&#45;&gt;e6 -->
<g id="edge27" class="edge">
<title>d6&#45;&gt;e6</title>
<path fill="none" stroke="black" d="M478,-313.2C478,-324.84 478,-340.45 478,-353.76"/>
<polygon fill="black" stroke="black" points="474.5,-353.82 478,-363.82 481.5,-353.82 474.5,-353.82"/>
<text text-anchor="start" x="478" y="-335.8" font-family="Times,serif" font-size="14.00">y</text>
<text text-anchor="start" x="487" y="-335.8" font-family="Times,serif" baseline-shift="sub" font-size="14.00">t&#45;2</text>
</g>
<!-- a7 -->
<g id="node35" class="node">
<title>a7</title>
<ellipse fill="none" stroke="transparent" cx="400" cy="-34" rx="18" ry="18"/>
<text text-anchor="middle" x="400" y="-30.3" font-family="Times,serif" font-size="14.00">blue</text>
</g>
<!-- b7 -->
<g id="node36" class="node">
<title>b7</title>
<ellipse fill="none" stroke="black" cx="400" cy="-121" rx="18" ry="18"/>
<text text-anchor="middle" x="400" y="-117.3" font-family="Times,serif" font-size="14.00">WE</text>
</g>
<!-- a7&#45;&gt;b7 -->
<g id="edge28" class="edge">
<title>a7&#45;&gt;b7</title>
<path fill="none" stroke="black" d="M400,-52.2C400,-63.84 400,-79.45 400,-92.76"/>
<polygon fill="black" stroke="black" points="396.5,-92.82 400,-102.82 403.5,-92.82 396.5,-92.82"/>
<text text-anchor="start" x="400" y="-74.8" font-family="Times,serif" font-size="14.00">w</text>
<text text-anchor="start" x="413" y="-74.8" font-family="Times,serif" baseline-shift="sub" font-size="14.00">t&#45;4</text>
</g>
<!-- b7&#45;&gt;c7 -->
<g id="edge29" class="edge">
<title>b7&#45;&gt;c7</title>
<path fill="none" stroke="black" d="M400,-139.2C400,-150.84 400,-166.45 400,-179.76"/>
<polygon fill="black" stroke="black" points="396.5,-179.82 400,-189.82 403.5,-179.82 396.5,-179.82"/>
<text text-anchor="start" x="400" y="-161.8" font-family="Times,serif" font-size="14.00">e</text>
<text text-anchor="start" x="409" y="-161.8" font-family="Times,serif" baseline-shift="sub" font-size="14.00">t&#45;4</text>
</g>
<!-- d7 -->
<g id="node38" class="node">
<title>d7</title>
<ellipse fill="none" stroke="black" cx="400" cy="-295" rx="18" ry="18"/>
<text text-anchor="middle" x="400" y="-291.3" font-family="Times,serif" font-size="14.00">SM</text>
</g>
<!-- c7&#45;&gt;d7 -->
<g id="edge30" class="edge">
<title>c7&#45;&gt;d7</title>
<path fill="none" stroke="black" d="M400,-226.2C400,-237.84 400,-253.45 400,-266.76"/>
<polygon fill="black" stroke="black" points="396.5,-266.82 400,-276.82 403.5,-266.82 396.5,-266.82"/>
<text text-anchor="start" x="400" y="-248.8" font-family="Times,serif" font-size="14.00">h</text>
<text text-anchor="start" x="410" y="-248.8" font-family="Times,serif" baseline-shift="sub" font-size="14.00">t&#45;4</text>
</g>
<!-- c8 -->
<g id="node42" class="node">
<title>c8</title>
<ellipse fill="none" stroke="black" cx="322" cy="-208" rx="18" ry="18"/>
</g>
<!-- c7&#45;&gt;c8 -->
<g id="edge58" class="edge">
<title>c7&#45;&gt;c8</title>
<path fill="none" stroke="black" d="M371.7,-208C361.15,-208 349.47,-208 340.09,-208"/>
<polygon fill="black" stroke="black" points="371.74,-211.5 381.74,-208 371.74,-204.5 371.74,-211.5"/>
<text text-anchor="start" x="349" y="-194.8" font-family="Times,serif" font-size="14.00">s</text>
<text text-anchor="start" x="357" y="-194.8" font-family="Times,serif" baseline-shift="sub" font-size="14.00">t&#45;5</text>
</g>
<!-- e7 -->
<g id="node39" class="node">
<title>e7</title>
<ellipse fill="none" stroke="transparent" cx="400" cy="-382" rx="18" ry="18"/>
<text text-anchor="middle" x="400" y="-378.3" font-family="Times,serif" font-size="14.00">.</text>
</g>
<!-- d7&#45;&gt;e7 -->
<g id="edge31" class="edge">
<title>d7&#45;&gt;e7</title>
<path fill="none" stroke="black" d="M400,-313.2C400,-324.84 400,-340.45 400,-353.76"/>
<polygon fill="black" stroke="black" points="396.5,-353.82 400,-363.82 403.5,-353.82 396.5,-353.82"/>
<text text-anchor="start" x="400" y="-335.8" font-family="Times,serif" font-size="14.00">y</text>
<text text-anchor="start" x="409" y="-335.8" font-family="Times,serif" baseline-shift="sub" font-size="14.00">t&#45;3</text>
</g>
<!-- a8 -->
<g id="node40" class="node">
<title>a8</title>
<ellipse fill="none" stroke="transparent" cx="322" cy="-34" rx="18" ry="18"/>
<text text-anchor="middle" x="322" y="-30.3" font-family="Times,serif" font-size="14.00">is</text>
</g>
<!-- b8 -->
<g id="node41" class="node">
<title>b8</title>
<ellipse fill="none" stroke="black" cx="322" cy="-121" rx="18" ry="18"/>
<text text-anchor="middle" x="322" y="-117.3" font-family="Times,serif" font-size="14.00">WE</text>
</g>
<!-- a8&#45;&gt;b8 -->
<g id="edge32" class="edge">
<title>a8&#45;&gt;b8</title>
<path fill="none" stroke="black" d="M322,-52.2C322,-63.84 322,-79.45 322,-92.76"/>
<polygon fill="black" stroke="black" points="318.5,-92.82 322,-102.82 325.5,-92.82 318.5,-92.82"/>
<text text-anchor="start" x="322" y="-74.8" font-family="Times,serif" font-size="14.00">w</text>
<text text-anchor="start" x="335" y="-74.8" font-family="Times,serif" baseline-shift="sub" font-size="14.00">t&#45;5</text>
</g>
<!-- b8&#45;&gt;c8 -->
<g id="edge33" class="edge">
<title>b8&#45;&gt;c8</title>
<path fill="none" stroke="black" d="M322,-139.2C322,-150.84 322,-166.45 322,-179.76"/>
<polygon fill="black" stroke="black" points="318.5,-179.82 322,-189.82 325.5,-179.82 318.5,-179.82"/>
<text text-anchor="start" x="322" y="-161.8" font-family="Times,serif" font-size="14.00">e</text>
<text text-anchor="start" x="331" y="-161.8" font-family="Times,serif" baseline-shift="sub" font-size="14.00">t&#45;5</text>
</g>
<!-- d8 -->
<g id="node43" class="node">
<title>d8</title>
<ellipse fill="none" stroke="black" cx="322" cy="-295" rx="18" ry="18"/>
<text text-anchor="middle" x="322" y="-291.3" font-family="Times,serif" font-size="14.00">SM</text>
</g>
<!-- c8&#45;&gt;d8 -->
<g id="edge34" class="edge">
<title>c8&#45;&gt;d8</title>
<path fill="none" stroke="black" d="M322,-226.2C322,-237.84 322,-253.45 322,-266.76"/>
<polygon fill="black" stroke="black" points="318.5,-266.82 322,-276.82 325.5,-266.82 318.5,-266.82"/>
<text text-anchor="start" x="322" y="-248.8" font-family="Times,serif" font-size="14.00">h</text>
<text text-anchor="start" x="332" y="-248.8" font-family="Times,serif" baseline-shift="sub" font-size="14.00">t&#45;5</text>
</g>
<!-- c9 -->
<g id="node47" class="node">
<title>c9</title>
<ellipse fill="none" stroke="black" cx="244" cy="-208" rx="18" ry="18"/>
</g>
<!-- c8&#45;&gt;c9 -->
<g id="edge59" class="edge">
<title>c8&#45;&gt;c9</title>
<path fill="none" stroke="black" d="M293.7,-208C283.15,-208 271.47,-208 262.09,-208"/>
<polygon fill="black" stroke="black" points="293.74,-211.5 303.74,-208 293.74,-204.5 293.74,-211.5"/>
<text text-anchor="start" x="271" y="-194.8" font-family="Times,serif" font-size="14.00">s</text>
<text text-anchor="start" x="279" y="-194.8" font-family="Times,serif" baseline-shift="sub" font-size="14.00">t&#45;6</text>
</g>
<!-- e8 -->
<g id="node44" class="node">
<title>e8</title>
<ellipse fill="none" stroke="transparent" cx="322" cy="-382" rx="18" ry="18"/>
<text text-anchor="middle" x="322" y="-378.3" font-family="Times,serif" font-size="14.00">blue</text>
</g>
<!-- d8&#45;&gt;e8 -->
<g id="edge35" class="edge">
<title>d8&#45;&gt;e8</title>
<path fill="none" stroke="black" d="M322,-313.2C322,-324.84 322,-340.45 322,-353.76"/>
<polygon fill="black" stroke="black" points="318.5,-353.82 322,-363.82 325.5,-353.82 318.5,-353.82"/>
<text text-anchor="start" x="322" y="-335.8" font-family="Times,serif" font-size="14.00">y</text>
<text text-anchor="start" x="331" y="-335.8" font-family="Times,serif" baseline-shift="sub" font-size="14.00">t&#45;4</text>
</g>
<!-- a9 -->
<g id="node45" class="node">
<title>a9</title>
<ellipse fill="none" stroke="transparent" cx="244" cy="-34" rx="18" ry="18"/>
<text text-anchor="middle" x="244" y="-30.3" font-family="Times,serif" font-size="14.00">house</text>
</g>
<!-- b9 -->
<g id="node46" class="node">
<title>b9</title>
<ellipse fill="none" stroke="black" cx="244" cy="-121" rx="18" ry="18"/>
<text text-anchor="middle" x="244" y="-117.3" font-family="Times,serif" font-size="14.00">WE</text>
</g>
<!-- a9&#45;&gt;b9 -->
<g id="edge36" class="edge">
<title>a9&#45;&gt;b9</title>
<path fill="none" stroke="black" d="M244,-52.2C244,-63.84 244,-79.45 244,-92.76"/>
<polygon fill="black" stroke="black" points="240.5,-92.82 244,-102.82 247.5,-92.82 240.5,-92.82"/>
<text text-anchor="start" x="244" y="-74.8" font-family="Times,serif" font-size="14.00">w</text>
<text text-anchor="start" x="257" y="-74.8" font-family="Times,serif" baseline-shift="sub" font-size="14.00">t&#45;6</text>
</g>
<!-- b9&#45;&gt;c9 -->
<g id="edge37" class="edge">
<title>b9&#45;&gt;c9</title>
<path fill="none" stroke="black" d="M244,-139.2C244,-150.84 244,-166.45 244,-179.76"/>
<polygon fill="black" stroke="black" points="240.5,-179.82 244,-189.82 247.5,-179.82 240.5,-179.82"/>
<text text-anchor="start" x="244" y="-161.8" font-family="Times,serif" font-size="14.00">e</text>
<text text-anchor="start" x="253" y="-161.8" font-family="Times,serif" baseline-shift="sub" font-size="14.00">t&#45;6</text>
</g>
<!-- d9 -->
<g id="node48" class="node">
<title>d9</title>
<ellipse fill="none" stroke="black" cx="244" cy="-295" rx="18" ry="18"/>
<text text-anchor="middle" x="244" y="-291.3" font-family="Times,serif" font-size="14.00">SM</text>
</g>
<!-- c9&#45;&gt;d9 -->
<g id="edge38" class="edge">
<title>c9&#45;&gt;d9</title>
<path fill="none" stroke="black" d="M244,-226.2C244,-237.84 244,-253.45 244,-266.76"/>
<polygon fill="black" stroke="black" points="240.5,-266.82 244,-276.82 247.5,-266.82 240.5,-266.82"/>
<text text-anchor="start" x="244" y="-248.8" font-family="Times,serif" font-size="14.00">h</text>
<text text-anchor="start" x="254" y="-248.8" font-family="Times,serif" baseline-shift="sub" font-size="14.00">t&#45;6</text>
</g>
<!-- c10 -->
<g id="node52" class="node">
<title>c10</title>
<ellipse fill="none" stroke="black" cx="166" cy="-208" rx="18" ry="18"/>
</g>
<!-- c9&#45;&gt;c10 -->
<g id="edge60" class="edge">
<title>c9&#45;&gt;c10</title>
<path fill="none" stroke="black" d="M215.7,-208C205.15,-208 193.47,-208 184.09,-208"/>
<polygon fill="black" stroke="black" points="215.74,-211.5 225.74,-208 215.74,-204.5 215.74,-211.5"/>
<text text-anchor="start" x="193" y="-194.8" font-family="Times,serif" font-size="14.00">s</text>
<text text-anchor="start" x="201" y="-194.8" font-family="Times,serif" baseline-shift="sub" font-size="14.00">t&#45;7</text>
</g>
<!-- e9 -->
<g id="node49" class="node">
<title>e9</title>
<ellipse fill="none" stroke="transparent" cx="244" cy="-382" rx="18" ry="18"/>
<text text-anchor="middle" x="244" y="-378.3" font-family="Times,serif" font-size="14.00">is</text>
</g>
<!-- d9&#45;&gt;e9 -->
<g id="edge39" class="edge">
<title>d9&#45;&gt;e9</title>
<path fill="none" stroke="black" d="M244,-313.2C244,-324.84 244,-340.45 244,-353.76"/>
<polygon fill="black" stroke="black" points="240.5,-353.82 244,-363.82 247.5,-353.82 240.5,-353.82"/>
<text text-anchor="start" x="244" y="-335.8" font-family="Times,serif" font-size="14.00">y</text>
<text text-anchor="start" x="253" y="-335.8" font-family="Times,serif" baseline-shift="sub" font-size="14.00">t&#45;5</text>
</g>
<!-- a10 -->
<g id="node50" class="node">
<title>a10</title>
<ellipse fill="none" stroke="transparent" cx="166" cy="-34" rx="18" ry="18"/>
<text text-anchor="middle" x="166" y="-30.3" font-family="Times,serif" font-size="14.00">the</text>
</g>
<!-- b10 -->
<g id="node51" class="node">
<title>b10</title>
<ellipse fill="none" stroke="black" cx="166" cy="-121" rx="18" ry="18"/>
<text text-anchor="middle" x="166" y="-117.3" font-family="Times,serif" font-size="14.00">WE</text>
</g>
<!-- a10&#45;&gt;b10 -->
<g id="edge40" class="edge">
<title>a10&#45;&gt;b10</title>
<path fill="none" stroke="black" d="M166,-52.2C166,-63.84 166,-79.45 166,-92.76"/>
<polygon fill="black" stroke="black" points="162.5,-92.82 166,-102.82 169.5,-92.82 162.5,-92.82"/>
<text text-anchor="start" x="166" y="-74.8" font-family="Times,serif" font-size="14.00">w</text>
<text text-anchor="start" x="179" y="-74.8" font-family="Times,serif" baseline-shift="sub" font-size="14.00">t&#45;7</text>
</g>
<!-- b10&#45;&gt;c10 -->
<g id="edge41" class="edge">
<title>b10&#45;&gt;c10</title>
<path fill="none" stroke="black" d="M166,-139.2C166,-150.84 166,-166.45 166,-179.76"/>
<polygon fill="black" stroke="black" points="162.5,-179.82 166,-189.82 169.5,-179.82 162.5,-179.82"/>
<text text-anchor="start" x="166" y="-161.8" font-family="Times,serif" font-size="14.00">e</text>
<text text-anchor="start" x="175" y="-161.8" font-family="Times,serif" baseline-shift="sub" font-size="14.00">t&#45;7</text>
</g>
<!-- d10 -->
<g id="node53" class="node">
<title>d10</title>
<ellipse fill="none" stroke="black" cx="166" cy="-295" rx="18" ry="18"/>
<text text-anchor="middle" x="166" y="-291.3" font-family="Times,serif" font-size="14.00">SM</text>
</g>
<!-- c10&#45;&gt;d10 -->
<g id="edge42" class="edge">
<title>c10&#45;&gt;d10</title>
<path fill="none" stroke="black" d="M166,-226.2C166,-237.84 166,-253.45 166,-266.76"/>
<polygon fill="black" stroke="black" points="162.5,-266.82 166,-276.82 169.5,-266.82 162.5,-266.82"/>
<text text-anchor="start" x="166" y="-248.8" font-family="Times,serif" font-size="14.00">h</text>
<text text-anchor="start" x="176" y="-248.8" font-family="Times,serif" baseline-shift="sub" font-size="14.00">t&#45;7</text>
</g>
<!-- c11 -->
<g id="node57" class="node">
<title>c11</title>
<ellipse fill="none" stroke="black" cx="88" cy="-208" rx="18" ry="18"/>
</g>
<!-- c10&#45;&gt;c11 -->
<g id="edge61" class="edge">
<title>c10&#45;&gt;c11</title>
<path fill="none" stroke="black" d="M137.7,-208C127.15,-208 115.47,-208 106.09,-208"/>
<polygon fill="black" stroke="black" points="137.74,-211.5 147.74,-208 137.74,-204.5 137.74,-211.5"/>
<text text-anchor="start" x="115" y="-194.8" font-family="Times,serif" font-size="14.00">s</text>
<text text-anchor="start" x="123" y="-194.8" font-family="Times,serif" baseline-shift="sub" font-size="14.00">t&#45;8</text>
</g>
<!-- e10 -->
<g id="node54" class="node">
<title>e10</title>
<ellipse fill="none" stroke="transparent" cx="166" cy="-382" rx="18" ry="18"/>
<text text-anchor="middle" x="166" y="-378.3" font-family="Times,serif" font-size="14.00">house</text>
</g>
<!-- d10&#45;&gt;e10 -->
<g id="edge43" class="edge">
<title>d10&#45;&gt;e10</title>
<path fill="none" stroke="black" d="M166,-313.2C166,-324.84 166,-340.45 166,-353.76"/>
<polygon fill="black" stroke="black" points="162.5,-353.82 166,-363.82 169.5,-353.82 162.5,-353.82"/>
<text text-anchor="start" x="166" y="-335.8" font-family="Times,serif" font-size="14.00">y</text>
<text text-anchor="start" x="175" y="-335.8" font-family="Times,serif" baseline-shift="sub" font-size="14.00">t&#45;6</text>
</g>
<!-- a11 -->
<g id="node55" class="node">
<title>a11</title>
<ellipse fill="none" stroke="transparent" cx="88" cy="-34" rx="18" ry="18"/>
<text text-anchor="middle" x="88" y="-30.3" font-family="Times,serif" font-size="14.00">&lt;s&gt;</text>
</g>
<!-- b11 -->
<g id="node56" class="node">
<title>b11</title>
<ellipse fill="none" stroke="black" cx="88" cy="-121" rx="18" ry="18"/>
<text text-anchor="middle" x="88" y="-117.3" font-family="Times,serif" font-size="14.00">WE</text>
</g>
<!-- a11&#45;&gt;b11 -->
<g id="edge44" class="edge">
<title>a11&#45;&gt;b11</title>
<path fill="none" stroke="black" d="M88,-52.2C88,-63.84 88,-79.45 88,-92.76"/>
<polygon fill="black" stroke="black" points="84.5,-92.82 88,-102.82 91.5,-92.82 84.5,-92.82"/>
<text text-anchor="start" x="88" y="-74.8" font-family="Times,serif" font-size="14.00">w</text>
<text text-anchor="start" x="101" y="-74.8" font-family="Times,serif" baseline-shift="sub" font-size="14.00">t&#45;8</text>
</g>
<!-- b11&#45;&gt;c11 -->
<g id="edge45" class="edge">
<title>b11&#45;&gt;c11</title>
<path fill="none" stroke="black" d="M88,-139.2C88,-150.84 88,-166.45 88,-179.76"/>
<polygon fill="black" stroke="black" points="84.5,-179.82 88,-189.82 91.5,-179.82 84.5,-179.82"/>
<text text-anchor="start" x="88" y="-161.8" font-family="Times,serif" font-size="14.00">e</text>
<text text-anchor="start" x="97" y="-161.8" font-family="Times,serif" baseline-shift="sub" font-size="14.00">t&#45;8</text>
</g>
<!-- d11 -->
<g id="node58" class="node">
<title>d11</title>
<ellipse fill="none" stroke="black" cx="88" cy="-295" rx="18" ry="18"/>
<text text-anchor="middle" x="88" y="-291.3" font-family="Times,serif" font-size="14.00">SM</text>
</g>
<!-- c11&#45;&gt;d11 -->
<g id="edge46" class="edge">
<title>c11&#45;&gt;d11</title>
<path fill="none" stroke="black" d="M88,-226.2C88,-237.84 88,-253.45 88,-266.76"/>
<polygon fill="black" stroke="black" points="84.5,-266.82 88,-276.82 91.5,-266.82 84.5,-266.82"/>
<text text-anchor="start" x="88" y="-248.8" font-family="Times,serif" font-size="14.00">h</text>
<text text-anchor="start" x="98" y="-248.8" font-family="Times,serif" baseline-shift="sub" font-size="14.00">t&#45;8</text>
</g>
<!-- e11 -->
<g id="node59" class="node">
<title>e11</title>
<ellipse fill="none" stroke="transparent" cx="88" cy="-382" rx="18" ry="18"/>
<text text-anchor="middle" x="88" y="-378.3" font-family="Times,serif" font-size="14.00">the</text>
</g>
<!-- d11&#45;&gt;e11 -->
<g id="edge47" class="edge">
<title>d11&#45;&gt;e11</title>
<path fill="none" stroke="black" d="M88,-313.2C88,-324.84 88,-340.45 88,-353.76"/>
<polygon fill="black" stroke="black" points="84.5,-353.82 88,-363.82 91.5,-353.82 84.5,-353.82"/>
<text text-anchor="start" x="88" y="-335.8" font-family="Times,serif" font-size="14.00">y</text>
<text text-anchor="start" x="97" y="-335.8" font-family="Times,serif" baseline-shift="sub" font-size="14.00">t&#45;7</text>
</g>
<!-- a12 -->
<g id="node60" class="node">
<title>a12</title>
<ellipse fill="none" stroke="transparent" cx="34" cy="-34" rx="18" ry="18"/>
</g>
<!-- b12 -->
<g id="node61" class="node">
<title>b12</title>
<ellipse fill="none" stroke="transparent" cx="34" cy="-121" rx="18" ry="18"/>
</g>
<!-- a12&#45;&gt;b12 -->
<!-- c12 -->
<g id="node62" class="node">
<title>c12</title>
<ellipse fill="none" stroke="transparent" cx="34" cy="-208" rx="18" ry="18"/>
</g>
<!-- b12&#45;&gt;c12 -->
<!-- d12 -->
<g id="node63" class="node">
<title>d12</title>
<ellipse fill="none" stroke="transparent" cx="34" cy="-295" rx="18" ry="18"/>
</g>
<!-- c12&#45;&gt;d12 -->
</g>
</svg>
